<?xml version="1.0" encoding="UTF-8" standalone="no"?>
<!DOCTYPE svg PUBLIC "-//W3C//DTD SVG 1.1//EN"
 "http://www.w3.org/Graphics/SVG/1.1/DTD/svg11.dtd">
<!-- Generated by graphviz version 2.40.1 (20161225.0304)
 -->
<!-- Title: dependencies Pages: 1 -->
<svg width="504pt" height="211pt"
 viewBox="0.00 0.00 504.00 211.00" xmlns="http://www.w3.org/2000/svg" xmlns:xlink="http://www.w3.org/1999/xlink">
<g id="graph0" class="graph" transform="scale(1 1) rotate(0) translate(4 207)">
<title>dependencies</title>
<polygon fill="#ffffff" stroke="transparent" points="-4,4 -4,-207 500,-207 500,4 -4,4"/>
<text text-anchor="start" x="227.0091" y="-42.4" font-family="sans-serif" font-weight="bold" font-size="14.00" fill="#000000">Legend</text>
<polygon fill="#ffffb3" stroke="transparent" points="14,-10 14,-30 34,-30 34,-10 14,-10"/>
<text text-anchor="start" x="37.629" y="-15.4" font-family="sans-serif" font-size="14.00" fill="#000000"> &#160;Declarations</text>
<polygon fill="#8dd3c7" stroke="transparent" points="127,-10 127,-30 147,-30 147,-10 127,-10"/>
<text text-anchor="start" x="150.7251" y="-15.4" font-family="sans-serif" font-size="14.00" fill="#000000"> &#160;Module</text>
<polygon fill="#80b1d3" stroke="transparent" points="213,-10 213,-30 233,-30 233,-10 213,-10"/>
<text text-anchor="start" x="236.7812" y="-15.4" font-family="sans-serif" font-size="14.00" fill="#000000"> &#160;Bootstrap</text>
<polygon fill="#fdb462" stroke="transparent" points="310,-10 310,-30 330,-30 330,-10 310,-10"/>
<text text-anchor="start" x="333.6732" y="-15.4" font-family="sans-serif" font-size="14.00" fill="#000000"> &#160;Providers</text>
<polygon fill="#fb8072" stroke="transparent" points="406,-10 406,-30 426,-30 426,-10 406,-10"/>
<text text-anchor="start" x="429.7258" y="-15.4" font-family="sans-serif" font-size="14.00" fill="#000000"> &#160;Exports</text>
<g id="clust1" class="cluster">
<title>cluster_CoreModule</title>
<polygon fill="none" stroke="#000000" stroke-dasharray="1,5" points="9,-70 9,-195 487,-195 487,-70 9,-70"/>
</g>
<g id="clust6" class="cluster">
<title>cluster_CoreModule_providers</title>
<polygon fill="none" stroke="#000000" points="17,-78 17,-130 479,-130 479,-78 17,-78"/>
</g>
<!-- MenuService -->
<g id="node1" class="node">
<title>MenuService</title>
<ellipse fill="#fdb462" stroke="#000000" cx="408" cy="-104" rx="62.5392" ry="18"/>
<text text-anchor="middle" x="408" y="-99.8" font-family="Times,serif" font-size="14.00" fill="#000000">MenuService</text>
</g>
<!-- CoreModule -->
<g id="node4" class="node">
<title>CoreModule</title>
<polygon fill="#8dd3c7" stroke="#000000" points="299.2619,-187 296.2619,-191 275.2619,-191 272.2619,-187 212.7381,-187 212.7381,-151 299.2619,-151 299.2619,-187"/>
<text text-anchor="middle" x="256" y="-164.8" font-family="Times,serif" font-size="14.00" fill="#000000">CoreModule</text>
</g>
<!-- MenuService&#45;&gt;CoreModule -->
<g id="edge1" class="edge">
<title>MenuService&#45;&gt;CoreModule</title>
<path fill="none" stroke="#000000" d="M408,-122.1061C408,-141.3391 408,-169 408,-169 408,-169 309.5571,-169 309.5571,-169"/>
<polygon fill="#000000" stroke="#000000" points="309.5571,-165.5001 299.5571,-169 309.5571,-172.5001 309.5571,-165.5001"/>
</g>
<!-- SettingsService -->
<g id="node2" class="node">
<title>SettingsService</title>
<ellipse fill="#fdb462" stroke="#000000" cx="256" cy="-104" rx="71.221" ry="18"/>
<text text-anchor="middle" x="256" y="-99.8" font-family="Times,serif" font-size="14.00" fill="#000000">SettingsService</text>
</g>
<!-- SettingsService&#45;&gt;CoreModule -->
<g id="edge2" class="edge">
<title>SettingsService&#45;&gt;CoreModule</title>
<path fill="none" stroke="#000000" d="M256,-122.1061C256,-122.1061 256,-140.991 256,-140.991"/>
<polygon fill="#000000" stroke="#000000" points="252.5001,-140.9909 256,-150.991 259.5001,-140.991 252.5001,-140.9909"/>
</g>
<!-- ThemesService -->
<g id="node3" class="node">
<title>ThemesService</title>
<ellipse fill="#fdb462" stroke="#000000" cx="96" cy="-104" rx="70.622" ry="18"/>
<text text-anchor="middle" x="96" y="-99.8" font-family="Times,serif" font-size="14.00" fill="#000000">ThemesService</text>
</g>
<!-- ThemesService&#45;&gt;CoreModule -->
<g id="edge3" class="edge">
<title>ThemesService&#45;&gt;CoreModule</title>
<path fill="none" stroke="#000000" d="M96,-122.1061C96,-141.3391 96,-169 96,-169 96,-169 202.7017,-169 202.7017,-169"/>
<polygon fill="#000000" stroke="#000000" points="202.7017,-172.5001 212.7017,-169 202.7017,-165.5001 202.7017,-172.5001"/>
</g>
</g>
</svg>
