<?xml version="1.0" encoding="UTF-8" standalone="no"?>
<!DOCTYPE svg PUBLIC "-//W3C//DTD SVG 1.1//EN"
 "http://www.w3.org/Graphics/SVG/1.1/DTD/svg11.dtd">
<!-- Generated by graphviz version 2.40.1 (20161225.0304)
 -->
<!-- Title: dependencies Pages: 1 -->
<svg width="1270pt" height="284pt"
 viewBox="0.00 0.00 1270.00 284.00" xmlns="http://www.w3.org/2000/svg" xmlns:xlink="http://www.w3.org/1999/xlink">
<g id="graph0" class="graph" transform="scale(1 1) rotate(0) translate(4 280)">
<title>dependencies</title>
<polygon fill="#ffffff" stroke="transparent" points="-4,4 -4,-280 1266,-280 1266,4 -4,4"/>
<text text-anchor="start" x="610.0091" y="-42.4" font-family="sans-serif" font-weight="bold" font-size="14.00" fill="#000000">Legend</text>
<polygon fill="#ffffb3" stroke="transparent" points="397,-10 397,-30 417,-30 417,-10 397,-10"/>
<text text-anchor="start" x="420.629" y="-15.4" font-family="sans-serif" font-size="14.00" fill="#000000"> &#160;Declarations</text>
<polygon fill="#8dd3c7" stroke="transparent" points="510,-10 510,-30 530,-30 530,-10 510,-10"/>
<text text-anchor="start" x="533.7251" y="-15.4" font-family="sans-serif" font-size="14.00" fill="#000000"> &#160;Module</text>
<polygon fill="#80b1d3" stroke="transparent" points="596,-10 596,-30 616,-30 616,-10 596,-10"/>
<text text-anchor="start" x="619.7812" y="-15.4" font-family="sans-serif" font-size="14.00" fill="#000000"> &#160;Bootstrap</text>
<polygon fill="#fdb462" stroke="transparent" points="693,-10 693,-30 713,-30 713,-10 693,-10"/>
<text text-anchor="start" x="716.6732" y="-15.4" font-family="sans-serif" font-size="14.00" fill="#000000"> &#160;Providers</text>
<polygon fill="#fb8072" stroke="transparent" points="789,-10 789,-30 809,-30 809,-10 789,-10"/>
<text text-anchor="start" x="812.7258" y="-15.4" font-family="sans-serif" font-size="14.00" fill="#000000"> &#160;Exports</text>
<g id="clust1" class="cluster">
<title>cluster_SharedModule</title>
<polygon fill="none" stroke="#000000" stroke-dasharray="1,5" points="8,-70 8,-268 1254,-268 1254,-70 8,-70"/>
</g>
<g id="clust2" class="cluster">
<title>cluster_SharedModule_declarations</title>
<polygon fill="none" stroke="#000000" points="172,-78 172,-130 1246,-130 1246,-78 172,-78"/>
</g>
<g id="clust12" class="cluster">
<title>cluster_SharedModule_exports</title>
<polygon fill="none" stroke="#000000" points="87,-208 87,-260 1192,-260 1192,-208 87,-208"/>
</g>
<g id="clust14" class="cluster">
<title>cluster_SharedModule_providers</title>
<polygon fill="none" stroke="#000000" points="16,-78 16,-130 164,-130 164,-78 16,-78"/>
</g>
<!-- CheckallDirective -->
<g id="node1" class="node">
<title>CheckallDirective</title>
<polygon fill="#ffffb3" stroke="#000000" points="1237.8445,-122 1120.1555,-122 1120.1555,-86 1237.8445,-86 1237.8445,-122"/>
<text text-anchor="middle" x="1179" y="-99.8" font-family="Times,serif" font-size="14.00" fill="#000000">CheckallDirective</text>
</g>
<!-- SharedModule -->
<g id="node9" class="node">
<title>SharedModule</title>
<polygon fill="#8dd3c7" stroke="#000000" points="707.4231,-187 704.4231,-191 683.4231,-191 680.4231,-187 608.5769,-187 608.5769,-151 707.4231,-151 707.4231,-187"/>
<text text-anchor="middle" x="658" y="-164.8" font-family="Times,serif" font-size="14.00" fill="#000000">SharedModule</text>
</g>
<!-- CheckallDirective&#45;&gt;SharedModule -->
<g id="edge1" class="edge">
<title>CheckallDirective&#45;&gt;SharedModule</title>
<path fill="none" stroke="#000000" d="M1151.875,-122.1061C1151.875,-141.3391 1151.875,-169 1151.875,-169 1151.875,-169 717.6159,-169 717.6159,-169"/>
<polygon fill="#000000" stroke="#000000" points="717.6159,-165.5001 707.6159,-169 717.6158,-172.5001 717.6159,-165.5001"/>
</g>
<!-- EasypiechartDirective -->
<g id="node2" class="node">
<title>EasypiechartDirective</title>
<polygon fill="#ffffb3" stroke="#000000" points="1102.3807,-122 961.6193,-122 961.6193,-86 1102.3807,-86 1102.3807,-122"/>
<text text-anchor="middle" x="1032" y="-99.8" font-family="Times,serif" font-size="14.00" fill="#000000">EasypiechartDirective</text>
</g>
<!-- EasypiechartDirective&#45;&gt;SharedModule -->
<g id="edge2" class="edge">
<title>EasypiechartDirective&#45;&gt;SharedModule</title>
<path fill="none" stroke="#000000" d="M1002.875,-122.302C1002.875,-140.2699 1002.875,-165 1002.875,-165 1002.875,-165 717.4122,-165 717.4122,-165"/>
<polygon fill="#000000" stroke="#000000" points="717.4122,-161.5001 707.4122,-165 717.4121,-168.5001 717.4122,-161.5001"/>
</g>
<!-- FlotDirective -->
<g id="node3" class="node">
<title>FlotDirective</title>
<polygon fill="#ffffb3" stroke="#000000" points="943.1473,-122 852.8527,-122 852.8527,-86 943.1473,-86 943.1473,-122"/>
<text text-anchor="middle" x="898" y="-99.8" font-family="Times,serif" font-size="14.00" fill="#000000">FlotDirective</text>
</g>
<!-- FlotDirective&#45;&gt;SharedModule -->
<g id="edge3" class="edge">
<title>FlotDirective&#45;&gt;SharedModule</title>
<path fill="none" stroke="#000000" d="M867.375,-122.027C867.375,-138.3976 867.375,-160 867.375,-160 867.375,-160 717.3538,-160 717.3538,-160"/>
<polygon fill="#000000" stroke="#000000" points="717.3539,-156.5001 707.3538,-160 717.3538,-163.5001 717.3539,-156.5001"/>
</g>
<!-- JqcloudDirective -->
<g id="node4" class="node">
<title>JqcloudDirective</title>
<polygon fill="#ffffb3" stroke="#000000" points="834.6332,-122 723.3668,-122 723.3668,-86 834.6332,-86 834.6332,-122"/>
<text text-anchor="middle" x="779" y="-99.8" font-family="Times,serif" font-size="14.00" fill="#000000">JqcloudDirective</text>
</g>
<!-- JqcloudDirective&#45;&gt;SharedModule -->
<g id="edge4" class="edge">
<title>JqcloudDirective&#45;&gt;SharedModule</title>
<path fill="none" stroke="#000000" d="M746.375,-122.1871C746.375,-137.1824 746.375,-156 746.375,-156 746.375,-156 717.3552,-156 717.3552,-156"/>
<polygon fill="#000000" stroke="#000000" points="717.3552,-152.5001 707.3552,-156 717.3552,-159.5001 717.3552,-152.5001"/>
</g>
<!-- NowDirective -->
<g id="node5" class="node">
<title>NowDirective</title>
<polygon fill="#ffffb3" stroke="#000000" points="705.7965,-122 610.2035,-122 610.2035,-86 705.7965,-86 705.7965,-122"/>
<text text-anchor="middle" x="658" y="-99.8" font-family="Times,serif" font-size="14.00" fill="#000000">NowDirective</text>
</g>
<!-- NowDirective&#45;&gt;SharedModule -->
<g id="edge5" class="edge">
<title>NowDirective&#45;&gt;SharedModule</title>
<path fill="none" stroke="#000000" d="M658,-122.1061C658,-122.1061 658,-140.991 658,-140.991"/>
<polygon fill="#000000" stroke="#000000" points="654.5001,-140.9909 658,-150.991 661.5001,-140.991 654.5001,-140.9909"/>
</g>
<!-- ScrollableDirective -->
<g id="node6" class="node">
<title>ScrollableDirective</title>
<polygon fill="#ffffb3" stroke="#000000" points="592.3417,-122 467.6583,-122 467.6583,-86 592.3417,-86 592.3417,-122"/>
<text text-anchor="middle" x="530" y="-99.8" font-family="Times,serif" font-size="14.00" fill="#000000">ScrollableDirective</text>
</g>
<!-- ScrollableDirective&#45;&gt;SharedModule -->
<g id="edge6" class="edge">
<title>ScrollableDirective&#45;&gt;SharedModule</title>
<path fill="none" stroke="#000000" d="M565.0114,-122.1871C565.0114,-137.1824 565.0114,-156 565.0114,-156 565.0114,-156 598.7828,-156 598.7828,-156"/>
<polygon fill="#000000" stroke="#000000" points="598.7828,-159.5001 608.7828,-156 598.7828,-152.5001 598.7828,-159.5001"/>
</g>
<!-- SparklineDirective -->
<g id="node7" class="node">
<title>SparklineDirective</title>
<polygon fill="#ffffb3" stroke="#000000" points="449.7367,-122 328.2633,-122 328.2633,-86 449.7367,-86 449.7367,-122"/>
<text text-anchor="middle" x="389" y="-99.8" font-family="Times,serif" font-size="14.00" fill="#000000">SparklineDirective</text>
</g>
<!-- SparklineDirective&#45;&gt;SharedModule -->
<g id="edge7" class="edge">
<title>SparklineDirective&#45;&gt;SharedModule</title>
<path fill="none" stroke="#000000" d="M420.3487,-122.027C420.3487,-138.3976 420.3487,-160 420.3487,-160 420.3487,-160 598.7585,-160 598.7585,-160"/>
<polygon fill="#000000" stroke="#000000" points="598.7585,-163.5001 608.7585,-160 598.7585,-156.5001 598.7585,-163.5001"/>
</g>
<!-- VectormapDirective -->
<g id="node8" class="node">
<title>VectormapDirective</title>
<polygon fill="#ffffb3" stroke="#000000" points="310.2753,-122 179.7247,-122 179.7247,-86 310.2753,-86 310.2753,-122"/>
<text text-anchor="middle" x="245" y="-99.8" font-family="Times,serif" font-size="14.00" fill="#000000">VectormapDirective</text>
</g>
<!-- VectormapDirective&#45;&gt;SharedModule -->
<g id="edge8" class="edge">
<title>VectormapDirective&#45;&gt;SharedModule</title>
<path fill="none" stroke="#000000" d="M278.7596,-122.302C278.7596,-140.2699 278.7596,-165 278.7596,-165 278.7596,-165 598.4209,-165 598.4209,-165"/>
<polygon fill="#000000" stroke="#000000" points="598.421,-168.5001 608.4209,-165 598.4209,-161.5001 598.421,-168.5001"/>
</g>
<!-- CheckallDirective  -->
<g id="node10" class="node">
<title>CheckallDirective </title>
<polygon fill="#fb8072" stroke="#000000" points="1183.8449,-252 1062.1551,-252 1062.1551,-216 1183.8449,-216 1183.8449,-252"/>
<text text-anchor="middle" x="1123" y="-229.8" font-family="Times,serif" font-size="14.00" fill="#000000">CheckallDirective </text>
</g>
<!-- SharedModule&#45;&gt;CheckallDirective  -->
<g id="edge9" class="edge">
<title>SharedModule&#45;&gt;CheckallDirective </title>
<path fill="none" stroke="#000000" stroke-dasharray="5,2" d="M707.4982,-174C819.4131,-174 1082.259,-174 1082.259,-174 1082.259,-174 1082.259,-205.998 1082.259,-205.998"/>
<polygon fill="#000000" stroke="#000000" points="1078.759,-205.998 1082.259,-215.998 1085.759,-205.9981 1078.759,-205.998"/>
</g>
<!-- EasypiechartDirective  -->
<g id="node11" class="node">
<title>EasypiechartDirective </title>
<polygon fill="#fb8072" stroke="#000000" points="1043.8802,-252 900.1198,-252 900.1198,-216 1043.8802,-216 1043.8802,-252"/>
<text text-anchor="middle" x="972" y="-229.8" font-family="Times,serif" font-size="14.00" fill="#000000">EasypiechartDirective </text>
</g>
<!-- SharedModule&#45;&gt;EasypiechartDirective  -->
<g id="edge10" class="edge">
<title>SharedModule&#45;&gt;EasypiechartDirective </title>
<path fill="none" stroke="#000000" stroke-dasharray="5,2" d="M707.289,-178C783.611,-178 921.6916,-178 921.6916,-178 921.6916,-178 921.6916,-205.973 921.6916,-205.973"/>
<polygon fill="#000000" stroke="#000000" points="918.1917,-205.973 921.6916,-215.973 925.1917,-205.973 918.1917,-205.973"/>
</g>
<!-- FlotDirective  -->
<g id="node12" class="node">
<title>FlotDirective </title>
<polygon fill="#fb8072" stroke="#000000" points="882.1467,-252 787.8533,-252 787.8533,-216 882.1467,-216 882.1467,-252"/>
<text text-anchor="middle" x="835" y="-229.8" font-family="Times,serif" font-size="14.00" fill="#000000">FlotDirective </text>
</g>
<!-- SharedModule&#45;&gt;FlotDirective  -->
<g id="edge11" class="edge">
<title>SharedModule&#45;&gt;FlotDirective </title>
<path fill="none" stroke="#000000" stroke-dasharray="5,2" d="M707.3719,-183C752.2073,-183 811.3715,-183 811.3715,-183 811.3715,-183 811.3715,-205.8757 811.3715,-205.8757"/>
<polygon fill="#000000" stroke="#000000" points="807.8716,-205.8757 811.3715,-215.8757 814.8716,-205.8757 807.8716,-205.8757"/>
</g>
<!-- JqcloudDirective  -->
<g id="node13" class="node">
<title>JqcloudDirective </title>
<polygon fill="#fb8072" stroke="#000000" points="769.6327,-252 654.3673,-252 654.3673,-216 769.6327,-216 769.6327,-252"/>
<text text-anchor="middle" x="712" y="-229.8" font-family="Times,serif" font-size="14.00" fill="#000000">JqcloudDirective </text>
</g>
<!-- SharedModule&#45;&gt;JqcloudDirective  -->
<g id="edge12" class="edge">
<title>SharedModule&#45;&gt;JqcloudDirective </title>
<path fill="none" stroke="#000000" stroke-dasharray="5,2" d="M680.8224,-187.1061C680.8224,-187.1061 680.8224,-205.991 680.8224,-205.991"/>
<polygon fill="#000000" stroke="#000000" points="677.3225,-205.9909 680.8224,-215.991 684.3225,-205.991 677.3225,-205.9909"/>
</g>
<!-- NowDirective  -->
<g id="node14" class="node">
<title>NowDirective </title>
<polygon fill="#fb8072" stroke="#000000" points="636.2962,-252 537.7038,-252 537.7038,-216 636.2962,-216 636.2962,-252"/>
<text text-anchor="middle" x="587" y="-229.8" font-family="Times,serif" font-size="14.00" fill="#000000">NowDirective </text>
</g>
<!-- SharedModule&#45;&gt;NowDirective  -->
<g id="edge13" class="edge">
<title>SharedModule&#45;&gt;NowDirective </title>
<path fill="none" stroke="#000000" stroke-dasharray="5,2" d="M622.5935,-187.1061C622.5935,-187.1061 622.5935,-205.991 622.5935,-205.991"/>
<polygon fill="#000000" stroke="#000000" points="619.0935,-205.9909 622.5935,-215.991 626.0935,-205.991 619.0935,-205.9909"/>
</g>
<!-- ScrollableDirective  -->
<g id="node15" class="node">
<title>ScrollableDirective </title>
<polygon fill="#fb8072" stroke="#000000" points="519.3421,-252 390.6579,-252 390.6579,-216 519.3421,-216 519.3421,-252"/>
<text text-anchor="middle" x="455" y="-229.8" font-family="Times,serif" font-size="14.00" fill="#000000">ScrollableDirective </text>
</g>
<!-- SharedModule&#45;&gt;ScrollableDirective  -->
<g id="edge14" class="edge">
<title>SharedModule&#45;&gt;ScrollableDirective </title>
<path fill="none" stroke="#000000" stroke-dasharray="5,2" d="M608.6071,-183C560.1157,-183 493.375,-183 493.375,-183 493.375,-183 493.375,-205.8757 493.375,-205.8757"/>
<polygon fill="#000000" stroke="#000000" points="489.8751,-205.8757 493.375,-215.8757 496.8751,-205.8757 489.8751,-205.8757"/>
</g>
<!-- SparklineDirective  -->
<g id="node16" class="node">
<title>SparklineDirective </title>
<polygon fill="#fb8072" stroke="#000000" points="372.7366,-252 247.2634,-252 247.2634,-216 372.7366,-216 372.7366,-252"/>
<text text-anchor="middle" x="310" y="-229.8" font-family="Times,serif" font-size="14.00" fill="#000000">SparklineDirective </text>
</g>
<!-- SharedModule&#45;&gt;SparklineDirective  -->
<g id="edge15" class="edge">
<title>SharedModule&#45;&gt;SparklineDirective </title>
<path fill="none" stroke="#000000" stroke-dasharray="5,2" d="M608.5747,-178C521.6163,-178 350.375,-178 350.375,-178 350.375,-178 350.375,-205.973 350.375,-205.973"/>
<polygon fill="#000000" stroke="#000000" points="346.8751,-205.973 350.375,-215.973 353.8751,-205.973 346.8751,-205.973"/>
</g>
<!-- VectormapDirective  -->
<g id="node17" class="node">
<title>VectormapDirective </title>
<polygon fill="#fb8072" stroke="#000000" points="228.7752,-252 95.2248,-252 95.2248,-216 228.7752,-216 228.7752,-252"/>
<text text-anchor="middle" x="162" y="-229.8" font-family="Times,serif" font-size="14.00" fill="#000000">VectormapDirective </text>
</g>
<!-- SharedModule&#45;&gt;VectormapDirective  -->
<g id="edge16" class="edge">
<title>SharedModule&#45;&gt;VectormapDirective </title>
<path fill="none" stroke="#000000" stroke-dasharray="5,2" d="M608.5906,-174C491.021,-174 204.375,-174 204.375,-174 204.375,-174 204.375,-205.998 204.375,-205.998"/>
<polygon fill="#000000" stroke="#000000" points="200.8751,-205.998 204.375,-215.998 207.8751,-205.9981 200.8751,-205.998"/>
</g>
<!-- ColorsService -->
<g id="node18" class="node">
<title>ColorsService</title>
<ellipse fill="#fdb462" stroke="#000000" cx="90" cy="-104" rx="65.9871" ry="18"/>
<text text-anchor="middle" x="90" y="-99.8" font-family="Times,serif" font-size="14.00" fill="#000000">ColorsService</text>
</g>
<!-- ColorsService&#45;&gt;SharedModule -->
<g id="edge17" class="edge">
<title>ColorsService&#45;&gt;SharedModule</title>
<path fill="none" stroke="#000000" d="M125.4278,-119.4041C125.4278,-138.6255 125.4278,-169 125.4278,-169 125.4278,-169 598.3751,-169 598.3751,-169"/>
<polygon fill="#000000" stroke="#000000" points="598.3752,-172.5001 608.3751,-169 598.3751,-165.5001 598.3752,-172.5001"/>
</g>
</g>
</svg>
