<?xml version="1.0" encoding="UTF-8" standalone="no"?>
<!DOCTYPE svg PUBLIC "-//W3C//DTD SVG 1.1//EN"
 "http://www.w3.org/Graphics/SVG/1.1/DTD/svg11.dtd">
<!-- Generated by graphviz version 2.40.1 (20161225.0304)
 -->
<!-- Title: dependencies Pages: 1 -->
<svg width="504pt" height="211pt"
 viewBox="0.00 0.00 504.00 211.00" xmlns="http://www.w3.org/2000/svg" xmlns:xlink="http://www.w3.org/1999/xlink">
<g id="graph0" class="graph" transform="scale(1 1) rotate(0) translate(4 207)">
<title>dependencies</title>
<polygon fill="#ffffff" stroke="transparent" points="-4,4 -4,-207 500,-207 500,4 -4,4"/>
<text text-anchor="start" x="227.0091" y="-42.4" font-family="sans-serif" font-weight="bold" font-size="14.00" fill="#000000">Legend</text>
<polygon fill="#ffffb3" stroke="transparent" points="14,-10 14,-30 34,-30 34,-10 14,-10"/>
<text text-anchor="start" x="37.629" y="-15.4" font-family="sans-serif" font-size="14.00" fill="#000000"> &#160;Declarations</text>
<polygon fill="#8dd3c7" stroke="transparent" points="127,-10 127,-30 147,-30 147,-10 127,-10"/>
<text text-anchor="start" x="150.7251" y="-15.4" font-family="sans-serif" font-size="14.00" fill="#000000"> &#160;Module</text>
<polygon fill="#80b1d3" stroke="transparent" points="213,-10 213,-30 233,-30 233,-10 213,-10"/>
<text text-anchor="start" x="236.7812" y="-15.4" font-family="sans-serif" font-size="14.00" fill="#000000"> &#160;Bootstrap</text>
<polygon fill="#fdb462" stroke="transparent" points="310,-10 310,-30 330,-30 330,-10 310,-10"/>
<text text-anchor="start" x="333.6732" y="-15.4" font-family="sans-serif" font-size="14.00" fill="#000000"> &#160;Providers</text>
<polygon fill="#fb8072" stroke="transparent" points="406,-10 406,-30 426,-30 426,-10 406,-10"/>
<text text-anchor="start" x="429.7258" y="-15.4" font-family="sans-serif" font-size="14.00" fill="#000000"> &#160;Exports</text>
<g id="clust1" class="cluster">
<title>cluster_ReportsModule</title>
<polygon fill="none" stroke="#000000" stroke-dasharray="1,5" points="70,-70 70,-195 426,-195 426,-70 70,-70"/>
</g>
<g id="clust2" class="cluster">
<title>cluster_ReportsModule_declarations</title>
<polygon fill="none" stroke="#000000" points="250,-78 250,-130 418,-130 418,-78 250,-78"/>
</g>
<g id="clust4" class="cluster">
<title>cluster_ReportsModule_imports</title>
<polygon fill="none" stroke="#000000" points="78,-78 78,-130 242,-130 242,-78 78,-78"/>
</g>
<!-- OrderReportComponent -->
<g id="node1" class="node">
<title>OrderReportComponent</title>
<polygon fill="#ffffb3" stroke="#000000" points="410.0772,-122 257.9228,-122 257.9228,-86 410.0772,-86 410.0772,-122"/>
<text text-anchor="middle" x="334" y="-99.8" font-family="Times,serif" font-size="14.00" fill="#000000">OrderReportComponent</text>
</g>
<!-- ReportsModule -->
<g id="node2" class="node">
<title>ReportsModule</title>
<polygon fill="#8dd3c7" stroke="#000000" points="298.5968,-187 295.5968,-191 274.5968,-191 271.5968,-187 195.4032,-187 195.4032,-151 298.5968,-151 298.5968,-187"/>
<text text-anchor="middle" x="247" y="-164.8" font-family="Times,serif" font-size="14.00" fill="#000000">ReportsModule</text>
</g>
<!-- OrderReportComponent&#45;&gt;ReportsModule -->
<g id="edge1" class="edge">
<title>OrderReportComponent&#45;&gt;ReportsModule</title>
<path fill="none" stroke="#000000" d="M278.2549,-122.1061C278.2549,-122.1061 278.2549,-140.991 278.2549,-140.991"/>
<polygon fill="#000000" stroke="#000000" points="274.755,-140.9909 278.2549,-150.991 281.755,-140.991 274.755,-140.9909"/>
</g>
<!-- ReportsRoutingModule -->
<g id="node3" class="node">
<title>ReportsRoutingModule</title>
<polygon fill="#8dd3c7" stroke="#000000" points="234.2148,-122 231.2148,-126 210.2148,-126 207.2148,-122 85.7852,-122 85.7852,-86 234.2148,-86 234.2148,-122"/>
<text text-anchor="middle" x="160" y="-99.8" font-family="Times,serif" font-size="14.00" fill="#000000">ReportsRoutingModule</text>
</g>
<!-- ReportsRoutingModule&#45;&gt;ReportsModule -->
<g id="edge2" class="edge">
<title>ReportsRoutingModule&#45;&gt;ReportsModule</title>
<path fill="none" stroke="#000000" d="M214.7795,-122.1061C214.7795,-122.1061 214.7795,-140.991 214.7795,-140.991"/>
<polygon fill="#000000" stroke="#000000" points="211.2795,-140.9909 214.7795,-150.991 218.2795,-140.991 211.2795,-140.9909"/>
</g>
</g>
</svg>
