<?xml version="1.0" encoding="UTF-8" standalone="no"?>
<!DOCTYPE svg PUBLIC "-//W3C//DTD SVG 1.1//EN"
 "http://www.w3.org/Graphics/SVG/1.1/DTD/svg11.dtd">
<!-- Generated by graphviz version 2.40.1 (20161225.0304)
 -->
<!-- Title: dependencies Pages: 1 -->
<svg width="1184pt" height="284pt"
 viewBox="0.00 0.00 1184.00 284.00" xmlns="http://www.w3.org/2000/svg" xmlns:xlink="http://www.w3.org/1999/xlink">
<g id="graph0" class="graph" transform="scale(1 1) rotate(0) translate(4 280)">
<title>dependencies</title>
<polygon fill="#ffffff" stroke="transparent" points="-4,4 -4,-280 1180,-280 1180,4 -4,4"/>
<text text-anchor="start" x="567.0091" y="-42.4" font-family="sans-serif" font-weight="bold" font-size="14.00" fill="#000000">Legend</text>
<polygon fill="#ffffb3" stroke="transparent" points="354,-10 354,-30 374,-30 374,-10 354,-10"/>
<text text-anchor="start" x="377.629" y="-15.4" font-family="sans-serif" font-size="14.00" fill="#000000"> &#160;Declarations</text>
<polygon fill="#8dd3c7" stroke="transparent" points="467,-10 467,-30 487,-30 487,-10 467,-10"/>
<text text-anchor="start" x="490.7251" y="-15.4" font-family="sans-serif" font-size="14.00" fill="#000000"> &#160;Module</text>
<polygon fill="#80b1d3" stroke="transparent" points="553,-10 553,-30 573,-30 573,-10 553,-10"/>
<text text-anchor="start" x="576.7812" y="-15.4" font-family="sans-serif" font-size="14.00" fill="#000000"> &#160;Bootstrap</text>
<polygon fill="#fdb462" stroke="transparent" points="650,-10 650,-30 670,-30 670,-10 650,-10"/>
<text text-anchor="start" x="673.6732" y="-15.4" font-family="sans-serif" font-size="14.00" fill="#000000"> &#160;Providers</text>
<polygon fill="#fb8072" stroke="transparent" points="746,-10 746,-30 766,-30 766,-10 746,-10"/>
<text text-anchor="start" x="769.7258" y="-15.4" font-family="sans-serif" font-size="14.00" fill="#000000"> &#160;Exports</text>
<g id="clust1" class="cluster">
<title>cluster_PagesModule</title>
<polygon fill="none" stroke="#000000" stroke-dasharray="1,5" points="8,-70 8,-268 1168,-268 1168,-70 8,-70"/>
</g>
<g id="clust2" class="cluster">
<title>cluster_PagesModule_declarations</title>
<polygon fill="none" stroke="#000000" points="138,-78 138,-130 1160,-130 1160,-78 138,-78"/>
</g>
<g id="clust10" class="cluster">
<title>cluster_PagesModule_imports</title>
<polygon fill="none" stroke="#000000" points="16,-78 16,-130 130,-130 130,-78 16,-78"/>
</g>
<g id="clust11" class="cluster">
<title>cluster_PagesModule_exports</title>
<polygon fill="none" stroke="#000000" points="65,-208 65,-260 1111,-260 1111,-208 65,-208"/>
</g>
<!-- Error404Component -->
<g id="node1" class="node">
<title>Error404Component</title>
<polygon fill="#ffffb3" stroke="#000000" points="1151.8669,-122 1020.1331,-122 1020.1331,-86 1151.8669,-86 1151.8669,-122"/>
<text text-anchor="middle" x="1086" y="-99.8" font-family="Times,serif" font-size="14.00" fill="#000000">Error404Component</text>
</g>
<!-- PagesModule -->
<g id="node8" class="node">
<title>PagesModule</title>
<polygon fill="#8dd3c7" stroke="#000000" points="652.2064,-187 649.2064,-191 628.2064,-191 625.2064,-187 559.7936,-187 559.7936,-151 652.2064,-151 652.2064,-187"/>
<text text-anchor="middle" x="606" y="-164.8" font-family="Times,serif" font-size="14.00" fill="#000000">PagesModule</text>
</g>
<!-- Error404Component&#45;&gt;PagesModule -->
<g id="edge1" class="edge">
<title>Error404Component&#45;&gt;PagesModule</title>
<path fill="none" stroke="#000000" d="M1061.375,-122.2222C1061.375,-140.8285 1061.375,-167 1061.375,-167 1061.375,-167 662.1698,-167 662.1698,-167"/>
<polygon fill="#000000" stroke="#000000" points="662.1698,-163.5001 652.1698,-167 662.1698,-170.5001 662.1698,-163.5001"/>
</g>
<!-- Error500Component -->
<g id="node2" class="node">
<title>Error500Component</title>
<polygon fill="#ffffb3" stroke="#000000" points="1001.8669,-122 870.1331,-122 870.1331,-86 1001.8669,-86 1001.8669,-122"/>
<text text-anchor="middle" x="936" y="-99.8" font-family="Times,serif" font-size="14.00" fill="#000000">Error500Component</text>
</g>
<!-- Error500Component&#45;&gt;PagesModule -->
<g id="edge2" class="edge">
<title>Error500Component&#45;&gt;PagesModule</title>
<path fill="none" stroke="#000000" d="M909.875,-122.0336C909.875,-139.0597 909.875,-162 909.875,-162 909.875,-162 662.1521,-162 662.1521,-162"/>
<polygon fill="#000000" stroke="#000000" points="662.1521,-158.5001 652.1521,-162 662.152,-165.5001 662.1521,-158.5001"/>
</g>
<!-- LockComponent -->
<g id="node3" class="node">
<title>LockComponent</title>
<polygon fill="#ffffb3" stroke="#000000" points="852.0996,-122 741.9004,-122 741.9004,-86 852.0996,-86 852.0996,-122"/>
<text text-anchor="middle" x="797" y="-99.8" font-family="Times,serif" font-size="14.00" fill="#000000">LockComponent</text>
</g>
<!-- LockComponent&#45;&gt;PagesModule -->
<g id="edge3" class="edge">
<title>LockComponent&#45;&gt;PagesModule</title>
<path fill="none" stroke="#000000" d="M769.375,-122.2396C769.375,-137.5706 769.375,-157 769.375,-157 769.375,-157 662.3797,-157 662.3797,-157"/>
<polygon fill="#000000" stroke="#000000" points="662.3797,-153.5001 652.3797,-157 662.3797,-160.5001 662.3797,-153.5001"/>
</g>
<!-- LoginComponent -->
<g id="node4" class="node">
<title>LoginComponent</title>
<polygon fill="#ffffb3" stroke="#000000" points="724.2758,-122 609.7242,-122 609.7242,-86 724.2758,-86 724.2758,-122"/>
<text text-anchor="middle" x="667" y="-99.8" font-family="Times,serif" font-size="14.00" fill="#000000">LoginComponent</text>
</g>
<!-- LoginComponent&#45;&gt;PagesModule -->
<g id="edge4" class="edge">
<title>LoginComponent&#45;&gt;PagesModule</title>
<path fill="none" stroke="#000000" d="M630.8577,-122.1061C630.8577,-122.1061 630.8577,-140.991 630.8577,-140.991"/>
<polygon fill="#000000" stroke="#000000" points="627.3577,-140.9909 630.8577,-150.991 634.3577,-140.991 627.3577,-140.9909"/>
</g>
<!-- MaintenanceComponent -->
<g id="node5" class="node">
<title>MaintenanceComponent</title>
<polygon fill="#ffffb3" stroke="#000000" points="591.6316,-122 438.3684,-122 438.3684,-86 591.6316,-86 591.6316,-122"/>
<text text-anchor="middle" x="515" y="-99.8" font-family="Times,serif" font-size="14.00" fill="#000000">MaintenanceComponent</text>
</g>
<!-- MaintenanceComponent&#45;&gt;PagesModule -->
<g id="edge5" class="edge">
<title>MaintenanceComponent&#45;&gt;PagesModule</title>
<path fill="none" stroke="#000000" d="M575.8563,-122.1061C575.8563,-122.1061 575.8563,-140.991 575.8563,-140.991"/>
<polygon fill="#000000" stroke="#000000" points="572.3563,-140.9909 575.8563,-150.991 579.3563,-140.991 572.3563,-140.9909"/>
</g>
<!-- RecoverComponent -->
<g id="node6" class="node">
<title>RecoverComponent</title>
<polygon fill="#ffffb3" stroke="#000000" points="419.9734,-122 292.0266,-122 292.0266,-86 419.9734,-86 419.9734,-122"/>
<text text-anchor="middle" x="356" y="-99.8" font-family="Times,serif" font-size="14.00" fill="#000000">RecoverComponent</text>
</g>
<!-- RecoverComponent&#45;&gt;PagesModule -->
<g id="edge6" class="edge">
<title>RecoverComponent&#45;&gt;PagesModule</title>
<path fill="none" stroke="#000000" d="M395.7106,-122.2396C395.7106,-137.5706 395.7106,-157 395.7106,-157 395.7106,-157 549.8511,-157 549.8511,-157"/>
<polygon fill="#000000" stroke="#000000" points="549.8511,-160.5001 559.8511,-157 549.8511,-153.5001 549.8511,-160.5001"/>
</g>
<!-- RegisterComponent -->
<g id="node7" class="node">
<title>RegisterComponent</title>
<polygon fill="#ffffb3" stroke="#000000" points="273.9846,-122 146.0154,-122 146.0154,-86 273.9846,-86 273.9846,-122"/>
<text text-anchor="middle" x="210" y="-99.8" font-family="Times,serif" font-size="14.00" fill="#000000">RegisterComponent</text>
</g>
<!-- RegisterComponent&#45;&gt;PagesModule -->
<g id="edge7" class="edge">
<title>RegisterComponent&#45;&gt;PagesModule</title>
<path fill="none" stroke="#000000" d="M248.1278,-122.0336C248.1278,-139.0597 248.1278,-162 248.1278,-162 248.1278,-162 549.5813,-162 549.5813,-162"/>
<polygon fill="#000000" stroke="#000000" points="549.5814,-165.5001 559.5813,-162 549.5813,-158.5001 549.5814,-165.5001"/>
</g>
<!-- Error404Component  -->
<g id="node10" class="node">
<title>Error404Component </title>
<polygon fill="#fb8072" stroke="#000000" points="1102.8673,-252 967.1327,-252 967.1327,-216 1102.8673,-216 1102.8673,-252"/>
<text text-anchor="middle" x="1035" y="-229.8" font-family="Times,serif" font-size="14.00" fill="#000000">Error404Component </text>
</g>
<!-- PagesModule&#45;&gt;Error404Component  -->
<g id="edge9" class="edge">
<title>PagesModule&#45;&gt;Error404Component </title>
<path fill="none" stroke="#000000" stroke-dasharray="5,2" d="M652.4269,-172C753.5306,-172 984.625,-172 984.625,-172 984.625,-172 984.625,-205.7333 984.625,-205.7333"/>
<polygon fill="#000000" stroke="#000000" points="981.1251,-205.7333 984.625,-215.7333 988.1251,-205.7333 981.1251,-205.7333"/>
</g>
<!-- Error500Component  -->
<g id="node11" class="node">
<title>Error500Component </title>
<polygon fill="#fb8072" stroke="#000000" points="949.8673,-252 814.1327,-252 814.1327,-216 949.8673,-216 949.8673,-252"/>
<text text-anchor="middle" x="882" y="-229.8" font-family="Times,serif" font-size="14.00" fill="#000000">Error500Component </text>
</g>
<!-- PagesModule&#45;&gt;Error500Component  -->
<g id="edge10" class="edge">
<title>PagesModule&#45;&gt;Error500Component </title>
<path fill="none" stroke="#000000" stroke-dasharray="5,2" d="M652.2477,-177C718.6728,-177 833.1832,-177 833.1832,-177 833.1832,-177 833.1832,-205.9648 833.1832,-205.9648"/>
<polygon fill="#000000" stroke="#000000" points="829.6833,-205.9648 833.1832,-215.9648 836.6833,-205.9649 829.6833,-205.9648"/>
</g>
<!-- LockComponent  -->
<g id="node12" class="node">
<title>LockComponent </title>
<polygon fill="#fb8072" stroke="#000000" points="796.6003,-252 683.3997,-252 683.3997,-216 796.6003,-216 796.6003,-252"/>
<text text-anchor="middle" x="740" y="-229.8" font-family="Times,serif" font-size="14.00" fill="#000000">LockComponent </text>
</g>
<!-- PagesModule&#45;&gt;LockComponent  -->
<g id="edge11" class="edge">
<title>PagesModule&#45;&gt;LockComponent </title>
<path fill="none" stroke="#000000" stroke-dasharray="5,2" d="M652.3195,-182C677.5962,-182 703.794,-182 703.794,-182 703.794,-182 703.794,-205.8129 703.794,-205.8129"/>
<polygon fill="#000000" stroke="#000000" points="700.2941,-205.8129 703.794,-215.8129 707.2941,-205.813 700.2941,-205.8129"/>
</g>
<!-- LoginComponent  -->
<g id="node13" class="node">
<title>LoginComponent </title>
<polygon fill="#fb8072" stroke="#000000" points="665.2759,-252 546.7241,-252 546.7241,-216 665.2759,-216 665.2759,-252"/>
<text text-anchor="middle" x="606" y="-229.8" font-family="Times,serif" font-size="14.00" fill="#000000">LoginComponent </text>
</g>
<!-- PagesModule&#45;&gt;LoginComponent  -->
<g id="edge12" class="edge">
<title>PagesModule&#45;&gt;LoginComponent </title>
<path fill="none" stroke="#000000" stroke-dasharray="5,2" d="M606,-187.1061C606,-187.1061 606,-205.991 606,-205.991"/>
<polygon fill="#000000" stroke="#000000" points="602.5001,-205.9909 606,-215.991 609.5001,-205.991 602.5001,-205.9909"/>
</g>
<!-- MaintenanceComponent  -->
<g id="node14" class="node">
<title>MaintenanceComponent </title>
<polygon fill="#fb8072" stroke="#000000" points="528.6313,-252 371.3687,-252 371.3687,-216 528.6313,-216 528.6313,-252"/>
<text text-anchor="middle" x="450" y="-229.8" font-family="Times,serif" font-size="14.00" fill="#000000">MaintenanceComponent </text>
</g>
<!-- PagesModule&#45;&gt;MaintenanceComponent  -->
<g id="edge13" class="edge">
<title>PagesModule&#45;&gt;MaintenanceComponent </title>
<path fill="none" stroke="#000000" stroke-dasharray="5,2" d="M559.6407,-182C524.9155,-182 483.375,-182 483.375,-182 483.375,-182 483.375,-205.8129 483.375,-205.8129"/>
<polygon fill="#000000" stroke="#000000" points="479.8751,-205.8129 483.375,-215.8129 486.8751,-205.813 479.8751,-205.8129"/>
</g>
<!-- RecoverComponent  -->
<g id="node15" class="node">
<title>RecoverComponent </title>
<polygon fill="#fb8072" stroke="#000000" points="353.9743,-252 222.0257,-252 222.0257,-216 353.9743,-216 353.9743,-252"/>
<text text-anchor="middle" x="288" y="-229.8" font-family="Times,serif" font-size="14.00" fill="#000000">RecoverComponent </text>
</g>
<!-- PagesModule&#45;&gt;RecoverComponent  -->
<g id="edge14" class="edge">
<title>PagesModule&#45;&gt;RecoverComponent </title>
<path fill="none" stroke="#000000" stroke-dasharray="5,2" d="M559.8809,-177C479.6541,-177 322.875,-177 322.875,-177 322.875,-177 322.875,-205.9648 322.875,-205.9648"/>
<polygon fill="#000000" stroke="#000000" points="319.3751,-205.9648 322.875,-215.9648 326.3751,-205.9649 319.3751,-205.9648"/>
</g>
<!-- RegisterComponent  -->
<g id="node16" class="node">
<title>RegisterComponent </title>
<polygon fill="#fb8072" stroke="#000000" points="204.9855,-252 73.0145,-252 73.0145,-216 204.9855,-216 204.9855,-252"/>
<text text-anchor="middle" x="139" y="-229.8" font-family="Times,serif" font-size="14.00" fill="#000000">RegisterComponent </text>
</g>
<!-- PagesModule&#45;&gt;RegisterComponent  -->
<g id="edge15" class="edge">
<title>PagesModule&#45;&gt;RegisterComponent </title>
<path fill="none" stroke="#000000" stroke-dasharray="5,2" d="M559.5064,-172C448.1563,-172 175.375,-172 175.375,-172 175.375,-172 175.375,-205.7333 175.375,-205.7333"/>
<polygon fill="#000000" stroke="#000000" points="171.8751,-205.7333 175.375,-215.7333 178.8751,-205.7333 171.8751,-205.7333"/>
</g>
<!-- SharedModule -->
<g id="node9" class="node">
<title>SharedModule</title>
<polygon fill="#8dd3c7" stroke="#000000" points="122.4231,-122 119.4231,-126 98.4231,-126 95.4231,-122 23.5769,-122 23.5769,-86 122.4231,-86 122.4231,-122"/>
<text text-anchor="middle" x="73" y="-99.8" font-family="Times,serif" font-size="14.00" fill="#000000">SharedModule</text>
</g>
<!-- SharedModule&#45;&gt;PagesModule -->
<g id="edge8" class="edge">
<title>SharedModule&#45;&gt;PagesModule</title>
<path fill="none" stroke="#000000" d="M97.7344,-122.2222C97.7344,-140.8285 97.7344,-167 97.7344,-167 97.7344,-167 549.5474,-167 549.5474,-167"/>
<polygon fill="#000000" stroke="#000000" points="549.5475,-170.5001 559.5474,-167 549.5474,-163.5001 549.5475,-170.5001"/>
</g>
</g>
</svg>
