<?xml version="1.0" encoding="UTF-8" standalone="no"?>
<!DOCTYPE svg PUBLIC "-//W3C//DTD SVG 1.1//EN"
 "http://www.w3.org/Graphics/SVG/1.1/DTD/svg11.dtd">
<!-- Generated by graphviz version 2.40.1 (20161225.0304)
 -->
<!-- Title: dependencies Pages: 1 -->
<svg width="504pt" height="211pt"
 viewBox="0.00 0.00 504.00 211.00" xmlns="http://www.w3.org/2000/svg" xmlns:xlink="http://www.w3.org/1999/xlink">
<g id="graph0" class="graph" transform="scale(1 1) rotate(0) translate(4 207)">
<title>dependencies</title>
<polygon fill="#ffffff" stroke="transparent" points="-4,4 -4,-207 500,-207 500,4 -4,4"/>
<text text-anchor="start" x="227.0091" y="-42.4" font-family="sans-serif" font-weight="bold" font-size="14.00" fill="#000000">Legend</text>
<polygon fill="#ffffb3" stroke="transparent" points="14,-10 14,-30 34,-30 34,-10 14,-10"/>
<text text-anchor="start" x="37.629" y="-15.4" font-family="sans-serif" font-size="14.00" fill="#000000"> &#160;Declarations</text>
<polygon fill="#8dd3c7" stroke="transparent" points="127,-10 127,-30 147,-30 147,-10 127,-10"/>
<text text-anchor="start" x="150.7251" y="-15.4" font-family="sans-serif" font-size="14.00" fill="#000000"> &#160;Module</text>
<polygon fill="#80b1d3" stroke="transparent" points="213,-10 213,-30 233,-30 233,-10 213,-10"/>
<text text-anchor="start" x="236.7812" y="-15.4" font-family="sans-serif" font-size="14.00" fill="#000000"> &#160;Bootstrap</text>
<polygon fill="#fdb462" stroke="transparent" points="310,-10 310,-30 330,-30 330,-10 310,-10"/>
<text text-anchor="start" x="333.6732" y="-15.4" font-family="sans-serif" font-size="14.00" fill="#000000"> &#160;Providers</text>
<polygon fill="#fb8072" stroke="transparent" points="406,-10 406,-30 426,-30 426,-10 406,-10"/>
<text text-anchor="start" x="429.7258" y="-15.4" font-family="sans-serif" font-size="14.00" fill="#000000"> &#160;Exports</text>
<g id="clust1" class="cluster">
<title>cluster_RoutesModule</title>
<polygon fill="none" stroke="#000000" stroke-dasharray="1,5" points="128,-70 128,-195 368,-195 368,-70 128,-70"/>
</g>
<g id="clust3" class="cluster">
<title>cluster_RoutesModule_imports</title>
<polygon fill="none" stroke="#000000" points="136,-78 136,-130 360,-130 360,-78 136,-78"/>
</g>
<!-- PagesModule -->
<g id="node1" class="node">
<title>PagesModule</title>
<polygon fill="#8dd3c7" stroke="#000000" points="352.2064,-122 349.2064,-126 328.2064,-126 325.2064,-122 259.7936,-122 259.7936,-86 352.2064,-86 352.2064,-122"/>
<text text-anchor="middle" x="306" y="-99.8" font-family="Times,serif" font-size="14.00" fill="#000000">PagesModule</text>
</g>
<!-- RoutesModule -->
<g id="node3" class="node">
<title>RoutesModule</title>
<polygon fill="#8dd3c7" stroke="#000000" points="298.4372,-187 295.4372,-191 274.4372,-191 271.4372,-187 199.5628,-187 199.5628,-151 298.4372,-151 298.4372,-187"/>
<text text-anchor="middle" x="249" y="-164.8" font-family="Times,serif" font-size="14.00" fill="#000000">RoutesModule</text>
</g>
<!-- PagesModule&#45;&gt;RoutesModule -->
<g id="edge1" class="edge">
<title>PagesModule&#45;&gt;RoutesModule</title>
<path fill="none" stroke="#000000" d="M279.0575,-122.1061C279.0575,-122.1061 279.0575,-140.991 279.0575,-140.991"/>
<polygon fill="#000000" stroke="#000000" points="275.5576,-140.9909 279.0575,-150.991 282.5576,-140.991 275.5576,-140.9909"/>
</g>
<!-- SharedModule -->
<g id="node2" class="node">
<title>SharedModule</title>
<polygon fill="#8dd3c7" stroke="#000000" points="242.4231,-122 239.4231,-126 218.4231,-126 215.4231,-122 143.5769,-122 143.5769,-86 242.4231,-86 242.4231,-122"/>
<text text-anchor="middle" x="193" y="-99.8" font-family="Times,serif" font-size="14.00" fill="#000000">SharedModule</text>
</g>
<!-- SharedModule&#45;&gt;RoutesModule -->
<g id="edge2" class="edge">
<title>SharedModule&#45;&gt;RoutesModule</title>
<path fill="none" stroke="#000000" d="M220.9965,-122.1061C220.9965,-122.1061 220.9965,-140.991 220.9965,-140.991"/>
<polygon fill="#000000" stroke="#000000" points="217.4966,-140.9909 220.9965,-150.991 224.4966,-140.991 217.4966,-140.9909"/>
</g>
</g>
</svg>
