<?xml version="1.0" encoding="UTF-8" standalone="no"?>
<!DOCTYPE svg PUBLIC "-//W3C//DTD SVG 1.1//EN"
 "http://www.w3.org/Graphics/SVG/1.1/DTD/svg11.dtd">
<!-- Generated by graphviz version 2.40.1 (20161225.0304)
 -->
<!-- Title: dependencies Pages: 1 -->
<svg width="4948pt" height="439pt"
 viewBox="0.00 0.00 4948.00 439.00" xmlns="http://www.w3.org/2000/svg" xmlns:xlink="http://www.w3.org/1999/xlink">
<g id="graph0" class="graph" transform="scale(1 1) rotate(0) translate(4 435)">
<title>dependencies</title>
<polygon fill="#ffffff" stroke="transparent" points="-4,4 -4,-435 4944,-435 4944,4 -4,4"/>
<text text-anchor="start" x="2449.0091" y="-42.4" font-family="sans-serif" font-weight="bold" font-size="14.00" fill="#000000">Legend</text>
<polygon fill="#ffffb3" stroke="transparent" points="2236,-10 2236,-30 2256,-30 2256,-10 2236,-10"/>
<text text-anchor="start" x="2259.629" y="-15.4" font-family="sans-serif" font-size="14.00" fill="#000000"> &#160;Declarations</text>
<polygon fill="#8dd3c7" stroke="transparent" points="2349,-10 2349,-30 2369,-30 2369,-10 2349,-10"/>
<text text-anchor="start" x="2372.7251" y="-15.4" font-family="sans-serif" font-size="14.00" fill="#000000"> &#160;Module</text>
<polygon fill="#80b1d3" stroke="transparent" points="2435,-10 2435,-30 2455,-30 2455,-10 2435,-10"/>
<text text-anchor="start" x="2458.7812" y="-15.4" font-family="sans-serif" font-size="14.00" fill="#000000"> &#160;Bootstrap</text>
<polygon fill="#fdb462" stroke="transparent" points="2532,-10 2532,-30 2552,-30 2552,-10 2532,-10"/>
<text text-anchor="start" x="2555.6732" y="-15.4" font-family="sans-serif" font-size="14.00" fill="#000000"> &#160;Providers</text>
<polygon fill="#fb8072" stroke="transparent" points="2628,-10 2628,-30 2648,-30 2648,-10 2628,-10"/>
<text text-anchor="start" x="2651.7258" y="-15.4" font-family="sans-serif" font-size="14.00" fill="#000000"> &#160;Exports</text>
<g id="clust1" class="cluster">
<title>cluster_AppModule</title>
<polygon fill="none" stroke="#000000" stroke-dasharray="1,5" points="1316,-146 1316,-423 1726,-423 1726,-146 1316,-146"/>
</g>
<g id="clust2" class="cluster">
<title>cluster_AppModule_declarations</title>
<polygon fill="none" stroke="#000000" points="1356,-219 1356,-271 1478,-271 1478,-219 1356,-219"/>
</g>
<g id="clust4" class="cluster">
<title>cluster_AppModule_imports</title>
<polygon fill="none" stroke="#000000" points="1486,-154 1486,-271 1718,-271 1718,-154 1486,-154"/>
</g>
<g id="clust6" class="cluster">
<title>cluster_AppModule_bootstrap</title>
<polygon fill="none" stroke="#000000" points="1355,-363 1355,-415 1479,-415 1479,-363 1355,-363"/>
</g>
<g id="clust8" class="cluster">
<title>cluster_CoreModule</title>
<polygon fill="none" stroke="#000000" stroke-dasharray="1,5" points="2375,-70 2375,-138 2853,-138 2853,-70 2375,-70"/>
</g>
<g id="clust13" class="cluster">
<title>cluster_CoreModule_providers</title>
<polygon fill="none" stroke="#000000" points="2383,-78 2383,-130 2845,-130 2845,-78 2383,-78"/>
</g>
<g id="clust14" class="cluster">
<title>cluster_HomeModule</title>
<polygon fill="none" stroke="#000000" stroke-dasharray="1,5" points="3931,-70 3931,-206 4079,-206 4079,-70 3931,-70"/>
</g>
<g id="clust15" class="cluster">
<title>cluster_HomeModule_declarations</title>
<polygon fill="none" stroke="#000000" points="3939,-78 3939,-130 4071,-130 4071,-78 3939,-78"/>
</g>
<g id="clust21" class="cluster">
<title>cluster_LayoutModule</title>
<polygon fill="none" stroke="#000000" stroke-dasharray="1,5" points="1734,-287 1734,-355 2607,-355 2607,-287 1734,-287"/>
</g>
<g id="clust22" class="cluster">
<title>cluster_LayoutModule_declarations</title>
<polygon fill="none" stroke="#000000" points="2180,-295 2180,-347 2599,-347 2599,-295 2180,-295"/>
</g>
<g id="clust27" class="cluster">
<title>cluster_LayoutModule_exports</title>
<polygon fill="none" stroke="#000000" points="1742,-295 1742,-347 2172,-347 2172,-295 1742,-295"/>
</g>
<g id="clust30" class="cluster">
<title>cluster_PagesModule</title>
<polygon fill="none" stroke="#000000" stroke-dasharray="1,5" points="2861,-70 2861,-279 3923,-279 3923,-70 2861,-70"/>
</g>
<g id="clust31" class="cluster">
<title>cluster_PagesModule_declarations</title>
<polygon fill="none" stroke="#000000" points="2869,-78 2869,-130 3891,-130 3891,-78 2869,-78"/>
</g>
<g id="clust40" class="cluster">
<title>cluster_PagesModule_exports</title>
<polygon fill="none" stroke="#000000" points="2869,-219 2869,-271 3915,-271 3915,-219 2869,-219"/>
</g>
<g id="clust43" class="cluster">
<title>cluster_ReportsModule</title>
<polygon fill="none" stroke="#000000" stroke-dasharray="1,5" points="4087,-70 4087,-206 4443,-206 4443,-70 4087,-70"/>
</g>
<g id="clust44" class="cluster">
<title>cluster_ReportsModule_declarations</title>
<polygon fill="none" stroke="#000000" points="4267,-78 4267,-130 4435,-130 4435,-78 4267,-78"/>
</g>
<g id="clust46" class="cluster">
<title>cluster_ReportsModule_imports</title>
<polygon fill="none" stroke="#000000" points="4095,-78 4095,-130 4259,-130 4259,-78 4095,-78"/>
</g>
<g id="clust62" class="cluster">
<title>cluster_SampleModule</title>
<polygon fill="none" stroke="#000000" stroke-dasharray="1,5" points="4451,-70 4451,-206 4932,-206 4932,-70 4451,-70"/>
</g>
<g id="clust63" class="cluster">
<title>cluster_SampleModule_declarations</title>
<polygon fill="none" stroke="#000000" points="4629,-78 4629,-130 4924,-130 4924,-78 4629,-78"/>
</g>
<g id="clust66" class="cluster">
<title>cluster_SampleModule_imports</title>
<polygon fill="none" stroke="#000000" points="4459,-78 4459,-130 4621,-130 4621,-78 4459,-78"/>
</g>
<g id="clust76" class="cluster">
<title>cluster_SharedModule</title>
<polygon fill="none" stroke="#000000" stroke-dasharray="1,5" points="8,-70 8,-138 2367,-138 2367,-70 8,-70"/>
</g>
<g id="clust77" class="cluster">
<title>cluster_SharedModule_declarations</title>
<polygon fill="none" stroke="#000000" points="1285,-78 1285,-130 2359,-130 2359,-78 1285,-78"/>
</g>
<g id="clust87" class="cluster">
<title>cluster_SharedModule_exports</title>
<polygon fill="none" stroke="#000000" points="172,-78 172,-130 1277,-130 1277,-78 172,-78"/>
</g>
<g id="clust89" class="cluster">
<title>cluster_SharedModule_providers</title>
<polygon fill="none" stroke="#000000" points="16,-78 16,-130 164,-130 164,-78 16,-78"/>
</g>
<!-- AppComponent -->
<g id="node1" class="node">
<title>AppComponent</title>
<polygon fill="#ffffb3" stroke="#000000" points="1469.9399,-263 1364.0601,-263 1364.0601,-227 1469.9399,-227 1469.9399,-263"/>
<text text-anchor="middle" x="1417" y="-240.8" font-family="Times,serif" font-size="14.00" fill="#000000">AppComponent</text>
</g>
<!-- AppModule -->
<g id="node2" class="node">
<title>AppModule</title>
<polygon fill="#8dd3c7" stroke="#000000" points="1458.6571,-339 1455.6571,-343 1434.6571,-343 1431.6571,-339 1375.3429,-339 1375.3429,-303 1458.6571,-303 1458.6571,-339"/>
<text text-anchor="middle" x="1417" y="-316.8" font-family="Times,serif" font-size="14.00" fill="#000000">AppModule</text>
</g>
<!-- AppComponent&#45;&gt;AppModule -->
<g id="edge1" class="edge">
<title>AppComponent&#45;&gt;AppModule</title>
<path fill="none" stroke="#000000" d="M1417,-263.0109C1417,-263.0109 1417,-292.855 1417,-292.855"/>
<polygon fill="#000000" stroke="#000000" points="1413.5001,-292.8549 1417,-302.855 1420.5001,-292.855 1413.5001,-292.8549"/>
</g>
<!-- AppComponent  -->
<g id="node7" class="node">
<title>AppComponent </title>
<polygon fill="#80b1d3" stroke="#000000" points="1471.439,-407 1362.561,-407 1362.561,-371 1471.439,-371 1471.439,-407"/>
<text text-anchor="middle" x="1417" y="-384.8" font-family="Times,serif" font-size="14.00" fill="#000000">AppComponent </text>
</g>
<!-- AppModule&#45;&gt;AppComponent  -->
<g id="edge6" class="edge">
<title>AppModule&#45;&gt;AppComponent </title>
<path fill="none" stroke="#000000" stroke-dasharray="1,5" d="M1417,-339.2228C1417,-339.2228 1417,-360.7269 1417,-360.7269"/>
<polygon fill="#000000" stroke="#000000" points="1413.5001,-360.7269 1417,-370.7269 1420.5001,-360.727 1413.5001,-360.7269"/>
</g>
<!-- CoreModule -->
<g id="node3" class="node">
<title>CoreModule</title>
<polygon fill="#8dd3c7" stroke="#000000" points="1710.2619,-198 1707.2619,-202 1686.2619,-202 1683.2619,-198 1623.7381,-198 1623.7381,-162 1710.2619,-162 1710.2619,-198"/>
<text text-anchor="middle" x="1667" y="-175.8" font-family="Times,serif" font-size="14.00" fill="#000000">CoreModule</text>
</g>
<!-- CoreModule&#45;&gt;AppModule -->
<g id="edge2" class="edge">
<title>CoreModule&#45;&gt;AppModule</title>
<path fill="none" stroke="#000000" d="M1623.5478,-174C1611.3311,-174 1601.3072,-174 1601.3072,-174 1601.3072,-174 1601.3072,-325 1601.3072,-325 1601.3072,-325 1468.8221,-325 1468.8221,-325"/>
<polygon fill="#000000" stroke="#000000" points="1468.8222,-321.5001 1458.8221,-325 1468.8221,-328.5001 1468.8222,-321.5001"/>
</g>
<!-- LayoutModule -->
<g id="node4" class="node">
<title>LayoutModule</title>
<polygon fill="#8dd3c7" stroke="#000000" points="1709.7078,-263 1706.7078,-267 1685.7078,-267 1682.7078,-263 1610.2922,-263 1610.2922,-227 1709.7078,-227 1709.7078,-263"/>
<text text-anchor="middle" x="1660" y="-240.8" font-family="Times,serif" font-size="14.00" fill="#000000">LayoutModule</text>
</g>
<!-- LayoutModule&#45;&gt;AppModule -->
<g id="edge3" class="edge">
<title>LayoutModule&#45;&gt;AppModule</title>
<path fill="none" stroke="#000000" d="M1660,-263.0265C1660,-288.5093 1660,-332 1660,-332 1660,-332 1468.7732,-332 1468.7732,-332"/>
<polygon fill="#000000" stroke="#000000" points="1468.7732,-328.5001 1458.7732,-332 1468.7732,-335.5001 1468.7732,-328.5001"/>
</g>
<!-- HeaderComponent  -->
<g id="node16" class="node">
<title>HeaderComponent </title>
<polygon fill="#fb8072" stroke="#000000" points="2163.7436,-339 2038.2564,-339 2038.2564,-303 2163.7436,-303 2163.7436,-339"/>
<text text-anchor="middle" x="2101" y="-316.8" font-family="Times,serif" font-size="14.00" fill="#000000">HeaderComponent </text>
</g>
<!-- LayoutModule&#45;&gt;HeaderComponent  -->
<g id="edge15" class="edge">
<title>LayoutModule&#45;&gt;HeaderComponent </title>
<path fill="none" stroke="#000000" stroke-dasharray="5,2" d="M1709.8729,-248C1815.1874,-248 2050.6503,-248 2050.6503,-248 2050.6503,-248 2050.6503,-292.9551 2050.6503,-292.9551"/>
<polygon fill="#000000" stroke="#000000" points="2047.1503,-292.955 2050.6503,-302.9551 2054.1503,-292.9551 2047.1503,-292.955"/>
</g>
<!-- LayoutComponent  -->
<g id="node17" class="node">
<title>LayoutComponent </title>
<polygon fill="#fb8072" stroke="#000000" points="2020.4912,-339 1895.5088,-339 1895.5088,-303 2020.4912,-303 2020.4912,-339"/>
<text text-anchor="middle" x="1958" y="-316.8" font-family="Times,serif" font-size="14.00" fill="#000000">LayoutComponent </text>
</g>
<!-- LayoutModule&#45;&gt;LayoutComponent  -->
<g id="edge16" class="edge">
<title>LayoutModule&#45;&gt;LayoutComponent </title>
<path fill="none" stroke="#000000" stroke-dasharray="5,2" d="M1709.6829,-253C1782.9697,-253 1911.4725,-253 1911.4725,-253 1911.4725,-253 1911.4725,-292.7772 1911.4725,-292.7772"/>
<polygon fill="#000000" stroke="#000000" points="1907.9726,-292.7772 1911.4725,-302.7772 1914.9726,-292.7773 1907.9726,-292.7772"/>
</g>
<!-- SidebarComponent  -->
<g id="node18" class="node">
<title>SidebarComponent </title>
<polygon fill="#fb8072" stroke="#000000" points="1877.596,-339 1750.404,-339 1750.404,-303 1877.596,-303 1877.596,-339"/>
<text text-anchor="middle" x="1814" y="-316.8" font-family="Times,serif" font-size="14.00" fill="#000000">SidebarComponent </text>
</g>
<!-- LayoutModule&#45;&gt;SidebarComponent  -->
<g id="edge17" class="edge">
<title>LayoutModule&#45;&gt;SidebarComponent </title>
<path fill="none" stroke="#000000" stroke-dasharray="5,2" d="M1709.6314,-258C1734.4471,-258 1759.2628,-258 1759.2628,-258 1759.2628,-258 1759.2628,-292.7778 1759.2628,-292.7778"/>
<polygon fill="#000000" stroke="#000000" points="1755.7629,-292.7778 1759.2628,-302.7778 1762.7629,-292.7778 1755.7629,-292.7778"/>
</g>
<!-- RoutesModule -->
<g id="node5" class="node">
<title>RoutesModule</title>
<polygon fill="#8dd3c7" stroke="#000000" points="1592.4372,-263 1589.4372,-267 1568.4372,-267 1565.4372,-263 1493.5628,-263 1493.5628,-227 1592.4372,-227 1592.4372,-263"/>
<text text-anchor="middle" x="1543" y="-240.8" font-family="Times,serif" font-size="14.00" fill="#000000">RoutesModule</text>
</g>
<!-- RoutesModule&#45;&gt;AppModule -->
<g id="edge4" class="edge">
<title>RoutesModule&#45;&gt;AppModule</title>
<path fill="none" stroke="#000000" d="M1543,-263.0449C1543,-284.6623 1543,-318 1543,-318 1543,-318 1468.9562,-318 1468.9562,-318"/>
<polygon fill="#000000" stroke="#000000" points="1468.9562,-314.5001 1458.9562,-318 1468.9561,-321.5001 1468.9562,-314.5001"/>
</g>
<!-- SharedModule -->
<g id="node6" class="node">
<title>SharedModule</title>
<polygon fill="#8dd3c7" stroke="#000000" points="1592.4231,-198 1589.4231,-202 1568.4231,-202 1565.4231,-198 1493.5769,-198 1493.5769,-162 1592.4231,-162 1592.4231,-198"/>
<text text-anchor="middle" x="1543" y="-175.8" font-family="Times,serif" font-size="14.00" fill="#000000">SharedModule</text>
</g>
<!-- SharedModule&#45;&gt;AppModule -->
<g id="edge5" class="edge">
<title>SharedModule&#45;&gt;AppModule</title>
<path fill="none" stroke="#000000" d="M1493.6993,-195C1487.1398,-195 1482.6257,-195 1482.6257,-195 1482.6257,-195 1482.6257,-311 1482.6257,-311 1482.6257,-311 1468.9333,-311 1468.9333,-311"/>
<polygon fill="#000000" stroke="#000000" points="1468.9334,-307.5001 1458.9333,-311 1468.9333,-314.5001 1468.9334,-307.5001"/>
</g>
<!-- SharedModule&#45;&gt;LayoutModule -->
<g id="edge14" class="edge">
<title>SharedModule&#45;&gt;LayoutModule</title>
<path fill="none" stroke="#000000" d="M1592.3642,-186C1605.9397,-186 1617.0077,-186 1617.0077,-186 1617.0077,-186 1617.0077,-216.9775 1617.0077,-216.9775"/>
<polygon fill="#000000" stroke="#000000" points="1613.5078,-216.9774 1617.0077,-226.9775 1620.5078,-216.9775 1613.5078,-216.9774"/>
</g>
<!-- SharedModule&#45;&gt;RoutesModule -->
<g id="edge36" class="edge">
<title>SharedModule&#45;&gt;RoutesModule</title>
<path fill="none" stroke="#000000" d="M1526.5963,-198.1061C1526.5963,-198.1061 1526.5963,-216.991 1526.5963,-216.991"/>
<polygon fill="#000000" stroke="#000000" points="1523.0964,-216.9909 1526.5963,-226.991 1530.0964,-216.991 1523.0964,-216.9909"/>
</g>
<!-- PagesModule -->
<g id="node26" class="node">
<title>PagesModule</title>
<polygon fill="#8dd3c7" stroke="#000000" points="3353.2064,-198 3350.2064,-202 3329.2064,-202 3326.2064,-198 3260.7936,-198 3260.7936,-162 3353.2064,-162 3353.2064,-198"/>
<text text-anchor="middle" x="3307" y="-175.8" font-family="Times,serif" font-size="14.00" fill="#000000">PagesModule</text>
</g>
<!-- SharedModule&#45;&gt;PagesModule -->
<g id="edge25" class="edge">
<title>SharedModule&#45;&gt;PagesModule</title>
<path fill="none" stroke="#000000" d="M1559.1906,-161.8777C1559.1906,-159.0271 1559.1906,-157 1559.1906,-157 1559.1906,-157 3263.5757,-157 3263.5757,-157 3263.5757,-157 3263.5757,-157.4878 3263.5757,-157.4878"/>
<polygon fill="#000000" stroke="#000000" points="3260.076,-151.8776 3263.5757,-161.8777 3267.076,-151.8778 3260.076,-151.8776"/>
</g>
<!-- CheckallDirective  -->
<g id="node49" class="node">
<title>CheckallDirective </title>
<polygon fill="#fb8072" stroke="#000000" points="972.8449,-122 851.1551,-122 851.1551,-86 972.8449,-86 972.8449,-122"/>
<text text-anchor="middle" x="912" y="-99.8" font-family="Times,serif" font-size="14.00" fill="#000000">CheckallDirective </text>
</g>
<!-- SharedModule&#45;&gt;CheckallDirective  -->
<g id="edge48" class="edge">
<title>SharedModule&#45;&gt;CheckallDirective </title>
<path fill="none" stroke="#000000" stroke-dasharray="5,2" d="M1493.7493,-174C1345.2446,-174 912,-174 912,-174 912,-174 912,-132.0267 912,-132.0267"/>
<polygon fill="#000000" stroke="#000000" points="915.5001,-132.0267 912,-122.0267 908.5001,-132.0268 915.5001,-132.0267"/>
</g>
<!-- EasypiechartDirective  -->
<g id="node50" class="node">
<title>EasypiechartDirective </title>
<polygon fill="#fb8072" stroke="#000000" points="832.8802,-122 689.1198,-122 689.1198,-86 832.8802,-86 832.8802,-122"/>
<text text-anchor="middle" x="761" y="-99.8" font-family="Times,serif" font-size="14.00" fill="#000000">EasypiechartDirective </text>
</g>
<!-- SharedModule&#45;&gt;EasypiechartDirective  -->
<g id="edge49" class="edge">
<title>SharedModule&#45;&gt;EasypiechartDirective </title>
<path fill="none" stroke="#000000" stroke-dasharray="5,2" d="M1493.7862,-177C1322.2364,-177 761,-177 761,-177 761,-177 761,-132.0449 761,-132.0449"/>
<polygon fill="#000000" stroke="#000000" points="764.5001,-132.0449 761,-122.0449 757.5001,-132.045 764.5001,-132.0449"/>
</g>
<!-- FlotDirective  -->
<g id="node51" class="node">
<title>FlotDirective </title>
<polygon fill="#fb8072" stroke="#000000" points="671.1467,-122 576.8533,-122 576.8533,-86 671.1467,-86 671.1467,-122"/>
<text text-anchor="middle" x="624" y="-99.8" font-family="Times,serif" font-size="14.00" fill="#000000">FlotDirective </text>
</g>
<!-- SharedModule&#45;&gt;FlotDirective  -->
<g id="edge50" class="edge">
<title>SharedModule&#45;&gt;FlotDirective </title>
<path fill="none" stroke="#000000" stroke-dasharray="5,2" d="M1493.5906,-180C1302.7048,-180 624,-180 624,-180 624,-180 624,-132.0109 624,-132.0109"/>
<polygon fill="#000000" stroke="#000000" points="627.5001,-132.0109 624,-122.0109 620.5001,-132.011 627.5001,-132.0109"/>
</g>
<!-- JqcloudDirective  -->
<g id="node52" class="node">
<title>JqcloudDirective </title>
<polygon fill="#fb8072" stroke="#000000" points="558.6327,-122 443.3673,-122 443.3673,-86 558.6327,-86 558.6327,-122"/>
<text text-anchor="middle" x="501" y="-99.8" font-family="Times,serif" font-size="14.00" fill="#000000">JqcloudDirective </text>
</g>
<!-- SharedModule&#45;&gt;JqcloudDirective  -->
<g id="edge51" class="edge">
<title>SharedModule&#45;&gt;JqcloudDirective </title>
<path fill="none" stroke="#000000" stroke-dasharray="5,2" d="M1493.4432,-183C1286.3646,-183 501,-183 501,-183 501,-183 501,-132.3228 501,-132.3228"/>
<polygon fill="#000000" stroke="#000000" points="504.5001,-132.3227 501,-122.3228 497.5001,-132.3228 504.5001,-132.3227"/>
</g>
<!-- NowDirective  -->
<g id="node53" class="node">
<title>NowDirective </title>
<polygon fill="#fb8072" stroke="#000000" points="425.2962,-122 326.7038,-122 326.7038,-86 425.2962,-86 425.2962,-122"/>
<text text-anchor="middle" x="376" y="-99.8" font-family="Times,serif" font-size="14.00" fill="#000000">NowDirective </text>
</g>
<!-- SharedModule&#45;&gt;NowDirective  -->
<g id="edge52" class="edge">
<title>SharedModule&#45;&gt;NowDirective </title>
<path fill="none" stroke="#000000" stroke-dasharray="5,2" d="M1493.6009,-186C1271.4799,-186 376,-186 376,-186 376,-186 376,-132.1985 376,-132.1985"/>
<polygon fill="#000000" stroke="#000000" points="379.5001,-132.1984 376,-122.1985 372.5001,-132.1985 379.5001,-132.1984"/>
</g>
<!-- ScrollableDirective  -->
<g id="node54" class="node">
<title>ScrollableDirective </title>
<polygon fill="#fb8072" stroke="#000000" points="308.3421,-122 179.6579,-122 179.6579,-86 308.3421,-86 308.3421,-122"/>
<text text-anchor="middle" x="244" y="-99.8" font-family="Times,serif" font-size="14.00" fill="#000000">ScrollableDirective </text>
</g>
<!-- SharedModule&#45;&gt;ScrollableDirective  -->
<g id="edge53" class="edge">
<title>SharedModule&#45;&gt;ScrollableDirective </title>
<path fill="none" stroke="#000000" stroke-dasharray="5,2" d="M1493.6639,-189C1256.3859,-189 244,-189 244,-189 244,-189 244,-132.0263 244,-132.0263"/>
<polygon fill="#000000" stroke="#000000" points="247.5001,-132.0263 244,-122.0263 240.5001,-132.0263 247.5001,-132.0263"/>
</g>
<!-- SparklineDirective  -->
<g id="node55" class="node">
<title>SparklineDirective </title>
<polygon fill="#fb8072" stroke="#000000" points="1268.7366,-122 1143.2634,-122 1143.2634,-86 1268.7366,-86 1268.7366,-122"/>
<text text-anchor="middle" x="1206" y="-99.8" font-family="Times,serif" font-size="14.00" fill="#000000">SparklineDirective </text>
</g>
<!-- SharedModule&#45;&gt;SparklineDirective  -->
<g id="edge54" class="edge">
<title>SharedModule&#45;&gt;SparklineDirective </title>
<path fill="none" stroke="#000000" stroke-dasharray="5,2" d="M1493.6364,-168C1400.0314,-168 1206,-168 1206,-168 1206,-168 1206,-132.1686 1206,-132.1686"/>
<polygon fill="#000000" stroke="#000000" points="1209.5001,-132.1686 1206,-122.1686 1202.5001,-132.1687 1209.5001,-132.1686"/>
</g>
<!-- VectormapDirective  -->
<g id="node56" class="node">
<title>VectormapDirective </title>
<polygon fill="#fb8072" stroke="#000000" points="1124.7752,-122 991.2248,-122 991.2248,-86 1124.7752,-86 1124.7752,-122"/>
<text text-anchor="middle" x="1058" y="-99.8" font-family="Times,serif" font-size="14.00" fill="#000000">VectormapDirective </text>
</g>
<!-- SharedModule&#45;&gt;VectormapDirective  -->
<g id="edge55" class="edge">
<title>SharedModule&#45;&gt;VectormapDirective </title>
<path fill="none" stroke="#000000" stroke-dasharray="5,2" d="M1493.3757,-171C1369.7656,-171 1058,-171 1058,-171 1058,-171 1058,-132.308 1058,-132.308"/>
<polygon fill="#000000" stroke="#000000" points="1061.5001,-132.308 1058,-122.308 1054.5001,-132.3081 1061.5001,-132.308"/>
</g>
<!-- MenuService -->
<g id="node8" class="node">
<title>MenuService</title>
<ellipse fill="#fdb462" stroke="#000000" cx="2774" cy="-104" rx="62.5392" ry="18"/>
<text text-anchor="middle" x="2774" y="-99.8" font-family="Times,serif" font-size="14.00" fill="#000000">MenuService</text>
</g>
<!-- MenuService&#45;&gt;CoreModule -->
<g id="edge7" class="edge">
<title>MenuService&#45;&gt;CoreModule</title>
<path fill="none" stroke="#000000" d="M2774,-122.1686C2774,-143.498 2774,-176 2774,-176 2774,-176 1720.3957,-176 1720.3957,-176"/>
<polygon fill="#000000" stroke="#000000" points="1720.3957,-172.5001 1710.3957,-176 1720.3957,-179.5001 1720.3957,-172.5001"/>
</g>
<!-- SettingsService -->
<g id="node9" class="node">
<title>SettingsService</title>
<ellipse fill="#fdb462" stroke="#000000" cx="2622" cy="-104" rx="71.221" ry="18"/>
<text text-anchor="middle" x="2622" y="-99.8" font-family="Times,serif" font-size="14.00" fill="#000000">SettingsService</text>
</g>
<!-- SettingsService&#45;&gt;CoreModule -->
<g id="edge8" class="edge">
<title>SettingsService&#45;&gt;CoreModule</title>
<path fill="none" stroke="#000000" d="M2570.8806,-116.6022C2570.8806,-136.0105 2570.8806,-171 2570.8806,-171 2570.8806,-171 1720.2915,-171 1720.2915,-171"/>
<polygon fill="#000000" stroke="#000000" points="1720.2916,-167.5001 1710.2915,-171 1720.2915,-174.5001 1720.2916,-167.5001"/>
</g>
<!-- ThemesService -->
<g id="node10" class="node">
<title>ThemesService</title>
<ellipse fill="#fdb462" stroke="#000000" cx="2462" cy="-104" rx="70.622" ry="18"/>
<text text-anchor="middle" x="2462" y="-99.8" font-family="Times,serif" font-size="14.00" fill="#000000">ThemesService</text>
</g>
<!-- ThemesService&#45;&gt;CoreModule -->
<g id="edge9" class="edge">
<title>ThemesService&#45;&gt;CoreModule</title>
<path fill="none" stroke="#000000" d="M2421.4671,-118.9301C2421.4671,-137.5601 2421.4671,-167 2421.4671,-167 2421.4671,-167 1720.2732,-167 1720.2732,-167"/>
<polygon fill="#000000" stroke="#000000" points="1720.2733,-163.5001 1710.2732,-167 1720.2732,-170.5001 1720.2733,-163.5001"/>
</g>
<!-- HomeComponent -->
<g id="node11" class="node">
<title>HomeComponent</title>
<polygon fill="#ffffb3" stroke="#000000" points="4062.5451,-122 3947.4549,-122 3947.4549,-86 4062.5451,-86 4062.5451,-122"/>
<text text-anchor="middle" x="4005" y="-99.8" font-family="Times,serif" font-size="14.00" fill="#000000">HomeComponent</text>
</g>
<!-- HomeModule -->
<g id="node12" class="node">
<title>HomeModule</title>
<polygon fill="#8dd3c7" stroke="#000000" points="4051.7619,-198 4048.7619,-202 4027.7619,-202 4024.7619,-198 3958.2381,-198 3958.2381,-162 4051.7619,-162 4051.7619,-198"/>
<text text-anchor="middle" x="4005" y="-175.8" font-family="Times,serif" font-size="14.00" fill="#000000">HomeModule</text>
</g>
<!-- HomeComponent&#45;&gt;HomeModule -->
<g id="edge10" class="edge">
<title>HomeComponent&#45;&gt;HomeModule</title>
<path fill="none" stroke="#000000" d="M4005,-122.0109C4005,-122.0109 4005,-151.855 4005,-151.855"/>
<polygon fill="#000000" stroke="#000000" points="4001.5001,-151.8549 4005,-161.855 4008.5001,-151.855 4001.5001,-151.8549"/>
</g>
<!-- HeaderComponent -->
<g id="node13" class="node">
<title>HeaderComponent</title>
<polygon fill="#ffffb3" stroke="#000000" points="2590.7437,-339 2469.2563,-339 2469.2563,-303 2590.7437,-303 2590.7437,-339"/>
<text text-anchor="middle" x="2530" y="-316.8" font-family="Times,serif" font-size="14.00" fill="#000000">HeaderComponent</text>
</g>
<!-- HeaderComponent&#45;&gt;LayoutModule -->
<g id="edge11" class="edge">
<title>HeaderComponent&#45;&gt;LayoutModule</title>
<path fill="none" stroke="#000000" d="M2500.8446,-302.7663C2500.8446,-276.9906 2500.8446,-233 2500.8446,-233 2500.8446,-233 1719.7696,-233 1719.7696,-233"/>
<polygon fill="#000000" stroke="#000000" points="1719.7696,-229.5001 1709.7696,-233 1719.7696,-236.5001 1719.7696,-229.5001"/>
</g>
<!-- LayoutComponent -->
<g id="node14" class="node">
<title>LayoutComponent</title>
<polygon fill="#ffffb3" stroke="#000000" points="2451.4902,-339 2330.5098,-339 2330.5098,-303 2451.4902,-303 2451.4902,-339"/>
<text text-anchor="middle" x="2391" y="-316.8" font-family="Times,serif" font-size="14.00" fill="#000000">LayoutComponent</text>
</g>
<!-- LayoutComponent&#45;&gt;LayoutModule -->
<g id="edge12" class="edge">
<title>LayoutComponent&#45;&gt;LayoutModule</title>
<path fill="none" stroke="#000000" d="M2340.6866,-302.9902C2340.6866,-278.5793 2340.6866,-238 2340.6866,-238 2340.6866,-238 1719.7767,-238 1719.7767,-238"/>
<polygon fill="#000000" stroke="#000000" points="1719.7768,-234.5001 1709.7767,-238 1719.7767,-241.5001 1719.7768,-234.5001"/>
</g>
<!-- SidebarComponent -->
<g id="node15" class="node">
<title>SidebarComponent</title>
<polygon fill="#ffffb3" stroke="#000000" points="2312.0954,-339 2187.9046,-339 2187.9046,-303 2312.0954,-303 2312.0954,-339"/>
<text text-anchor="middle" x="2250" y="-316.8" font-family="Times,serif" font-size="14.00" fill="#000000">SidebarComponent</text>
</g>
<!-- SidebarComponent&#45;&gt;LayoutModule -->
<g id="edge13" class="edge">
<title>SidebarComponent&#45;&gt;LayoutModule</title>
<path fill="none" stroke="#000000" d="M2199.5449,-302.9092C2199.5449,-279.8672 2199.5449,-243 2199.5449,-243 2199.5449,-243 1719.792,-243 1719.792,-243"/>
<polygon fill="#000000" stroke="#000000" points="1719.792,-239.5001 1709.792,-243 1719.792,-246.5001 1719.792,-239.5001"/>
</g>
<!-- Error404Component -->
<g id="node19" class="node">
<title>Error404Component</title>
<polygon fill="#ffffb3" stroke="#000000" points="3418.8669,-122 3287.1331,-122 3287.1331,-86 3418.8669,-86 3418.8669,-122"/>
<text text-anchor="middle" x="3353" y="-99.8" font-family="Times,serif" font-size="14.00" fill="#000000">Error404Component</text>
</g>
<!-- Error404Component&#45;&gt;PagesModule -->
<g id="edge18" class="edge">
<title>Error404Component&#45;&gt;PagesModule</title>
<path fill="none" stroke="#000000" d="M3320.0849,-122.0109C3320.0849,-122.0109 3320.0849,-151.855 3320.0849,-151.855"/>
<polygon fill="#000000" stroke="#000000" points="3316.5849,-151.8549 3320.0849,-161.855 3323.5849,-151.855 3316.5849,-151.8549"/>
</g>
<!-- Error500Component -->
<g id="node20" class="node">
<title>Error500Component</title>
<polygon fill="#ffffb3" stroke="#000000" points="3268.8669,-122 3137.1331,-122 3137.1331,-86 3268.8669,-86 3268.8669,-122"/>
<text text-anchor="middle" x="3203" y="-99.8" font-family="Times,serif" font-size="14.00" fill="#000000">Error500Component</text>
</g>
<!-- Error500Component&#45;&gt;PagesModule -->
<g id="edge19" class="edge">
<title>Error500Component&#45;&gt;PagesModule</title>
<path fill="none" stroke="#000000" d="M3266.2546,-122.0109C3266.2546,-122.0109 3266.2546,-151.855 3266.2546,-151.855"/>
<polygon fill="#000000" stroke="#000000" points="3262.7547,-151.8549 3266.2546,-161.855 3269.7547,-151.855 3262.7547,-151.8549"/>
</g>
<!-- LockComponent -->
<g id="node21" class="node">
<title>LockComponent</title>
<polygon fill="#ffffb3" stroke="#000000" points="3119.0996,-122 3008.9004,-122 3008.9004,-86 3119.0996,-86 3119.0996,-122"/>
<text text-anchor="middle" x="3064" y="-99.8" font-family="Times,serif" font-size="14.00" fill="#000000">LockComponent</text>
</g>
<!-- LockComponent&#45;&gt;PagesModule -->
<g id="edge20" class="edge">
<title>LockComponent&#45;&gt;PagesModule</title>
<path fill="none" stroke="#000000" d="M3072.7421,-122.0109C3072.7421,-144.4852 3072.7421,-180 3072.7421,-180 3072.7421,-180 3250.7182,-180 3250.7182,-180"/>
<polygon fill="#000000" stroke="#000000" points="3250.7182,-183.5001 3260.7182,-180 3250.7181,-176.5001 3250.7182,-183.5001"/>
</g>
<!-- LoginComponent -->
<g id="node22" class="node">
<title>LoginComponent</title>
<polygon fill="#ffffb3" stroke="#000000" points="2991.2758,-122 2876.7242,-122 2876.7242,-86 2991.2758,-86 2991.2758,-122"/>
<text text-anchor="middle" x="2934" y="-99.8" font-family="Times,serif" font-size="14.00" fill="#000000">LoginComponent</text>
</g>
<!-- LoginComponent&#45;&gt;PagesModule -->
<g id="edge21" class="edge">
<title>LoginComponent&#45;&gt;PagesModule</title>
<path fill="none" stroke="#000000" d="M2934.3256,-122.3802C2934.3256,-146.2785 2934.3256,-185 2934.3256,-185 2934.3256,-185 3250.554,-185 3250.554,-185"/>
<polygon fill="#000000" stroke="#000000" points="3250.5541,-188.5001 3260.554,-185 3250.554,-181.5001 3250.5541,-188.5001"/>
</g>
<!-- MaintenanceComponent -->
<g id="node23" class="node">
<title>MaintenanceComponent</title>
<polygon fill="#ffffb3" stroke="#000000" points="3882.6316,-122 3729.3684,-122 3729.3684,-86 3882.6316,-86 3882.6316,-122"/>
<text text-anchor="middle" x="3806" y="-99.8" font-family="Times,serif" font-size="14.00" fill="#000000">MaintenanceComponent</text>
</g>
<!-- MaintenanceComponent&#45;&gt;PagesModule -->
<g id="edge22" class="edge">
<title>MaintenanceComponent&#45;&gt;PagesModule</title>
<path fill="none" stroke="#000000" d="M3743.4339,-122.2921C3743.4339,-144.2057 3743.4339,-178 3743.4339,-178 3743.4339,-178 3363.2929,-178 3363.2929,-178"/>
<polygon fill="#000000" stroke="#000000" points="3363.2929,-174.5001 3353.2929,-178 3363.2929,-181.5001 3363.2929,-174.5001"/>
</g>
<!-- RecoverComponent -->
<g id="node24" class="node">
<title>RecoverComponent</title>
<polygon fill="#ffffb3" stroke="#000000" points="3710.9734,-122 3583.0266,-122 3583.0266,-86 3710.9734,-86 3710.9734,-122"/>
<text text-anchor="middle" x="3647" y="-99.8" font-family="Times,serif" font-size="14.00" fill="#000000">RecoverComponent</text>
</g>
<!-- RecoverComponent&#45;&gt;PagesModule -->
<g id="edge23" class="edge">
<title>RecoverComponent&#45;&gt;PagesModule</title>
<path fill="none" stroke="#000000" d="M3593.8484,-122.1289C3593.8484,-142.5724 3593.8484,-173 3593.8484,-173 3593.8484,-173 3363.406,-173 3363.406,-173"/>
<polygon fill="#000000" stroke="#000000" points="3363.406,-169.5001 3353.406,-173 3363.4059,-176.5001 3363.406,-169.5001"/>
</g>
<!-- RegisterComponent -->
<g id="node25" class="node">
<title>RegisterComponent</title>
<polygon fill="#ffffb3" stroke="#000000" points="3564.9846,-122 3437.0154,-122 3437.0154,-86 3564.9846,-86 3564.9846,-122"/>
<text text-anchor="middle" x="3501" y="-99.8" font-family="Times,serif" font-size="14.00" fill="#000000">RegisterComponent</text>
</g>
<!-- RegisterComponent&#45;&gt;PagesModule -->
<g id="edge24" class="edge">
<title>RegisterComponent&#45;&gt;PagesModule</title>
<path fill="none" stroke="#000000" d="M3444.4038,-122.1686C3444.4038,-141.0898 3444.4038,-168 3444.4038,-168 3444.4038,-168 3363.1357,-168 3363.1357,-168"/>
<polygon fill="#000000" stroke="#000000" points="3363.1357,-164.5001 3353.1357,-168 3363.1357,-171.5001 3363.1357,-164.5001"/>
</g>
<!-- PagesModule&#45;&gt;RoutesModule -->
<g id="edge35" class="edge">
<title>PagesModule&#45;&gt;RoutesModule</title>
<path fill="none" stroke="#000000" d="M3280.6439,-198.0449C3280.6439,-205.749 3280.6439,-213 3280.6439,-213 3280.6439,-213 1559.4037,-213 1559.4037,-213 1559.4037,-213 1559.4037,-216.7566 1559.4037,-216.7566"/>
<polygon fill="#000000" stroke="#000000" points="1555.9038,-216.7566 1559.4037,-226.7566 1562.9038,-216.7566 1555.9038,-216.7566"/>
</g>
<!-- Error404Component  -->
<g id="node27" class="node">
<title>Error404Component </title>
<polygon fill="#fb8072" stroke="#000000" points="3757.8673,-263 3622.1327,-263 3622.1327,-227 3757.8673,-227 3757.8673,-263"/>
<text text-anchor="middle" x="3690" y="-240.8" font-family="Times,serif" font-size="14.00" fill="#000000">Error404Component </text>
</g>
<!-- PagesModule&#45;&gt;Error404Component  -->
<g id="edge26" class="edge">
<title>PagesModule&#45;&gt;Error404Component </title>
<path fill="none" stroke="#000000" stroke-dasharray="5,2" d="M3353.2819,-188C3450.4181,-188 3666.6517,-188 3666.6517,-188 3666.6517,-188 3666.6517,-216.9648 3666.6517,-216.9648"/>
<polygon fill="#000000" stroke="#000000" points="3663.1517,-216.9648 3666.6517,-226.9648 3670.1517,-216.9649 3663.1517,-216.9648"/>
</g>
<!-- Error500Component  -->
<g id="node28" class="node">
<title>Error500Component </title>
<polygon fill="#fb8072" stroke="#000000" points="3604.8673,-263 3469.1327,-263 3469.1327,-227 3604.8673,-227 3604.8673,-263"/>
<text text-anchor="middle" x="3537" y="-240.8" font-family="Times,serif" font-size="14.00" fill="#000000">Error500Component </text>
</g>
<!-- PagesModule&#45;&gt;Error500Component  -->
<g id="edge27" class="edge">
<title>PagesModule&#45;&gt;Error500Component </title>
<path fill="none" stroke="#000000" stroke-dasharray="5,2" d="M3353.1193,-193C3414.9817,-193 3517.1545,-193 3517.1545,-193 3517.1545,-193 3517.1545,-216.8129 3517.1545,-216.8129"/>
<polygon fill="#000000" stroke="#000000" points="3513.6545,-216.8129 3517.1545,-226.8129 3520.6545,-216.813 3513.6545,-216.8129"/>
</g>
<!-- LockComponent  -->
<g id="node29" class="node">
<title>LockComponent </title>
<polygon fill="#fb8072" stroke="#000000" points="3451.6003,-263 3338.3997,-263 3338.3997,-227 3451.6003,-227 3451.6003,-263"/>
<text text-anchor="middle" x="3395" y="-240.8" font-family="Times,serif" font-size="14.00" fill="#000000">LockComponent </text>
</g>
<!-- PagesModule&#45;&gt;LockComponent  -->
<g id="edge28" class="edge">
<title>PagesModule&#45;&gt;LockComponent </title>
<path fill="none" stroke="#000000" stroke-dasharray="5,2" d="M3345.6516,-198.1061C3345.6516,-198.1061 3345.6516,-216.991 3345.6516,-216.991"/>
<polygon fill="#000000" stroke="#000000" points="3342.1517,-216.9909 3345.6516,-226.991 3349.1517,-216.991 3342.1517,-216.9909"/>
</g>
<!-- LoginComponent  -->
<g id="node30" class="node">
<title>LoginComponent </title>
<polygon fill="#fb8072" stroke="#000000" points="3320.2759,-263 3201.7241,-263 3201.7241,-227 3320.2759,-227 3320.2759,-263"/>
<text text-anchor="middle" x="3261" y="-240.8" font-family="Times,serif" font-size="14.00" fill="#000000">LoginComponent </text>
</g>
<!-- PagesModule&#45;&gt;LoginComponent  -->
<g id="edge29" class="edge">
<title>PagesModule&#45;&gt;LoginComponent </title>
<path fill="none" stroke="#000000" stroke-dasharray="5,2" d="M3300.3908,-198.1061C3300.3908,-198.1061 3300.3908,-216.991 3300.3908,-216.991"/>
<polygon fill="#000000" stroke="#000000" points="3296.8909,-216.9909 3300.3908,-226.991 3303.8909,-216.991 3296.8909,-216.9909"/>
</g>
<!-- MaintenanceComponent  -->
<g id="node31" class="node">
<title>MaintenanceComponent </title>
<polygon fill="#fb8072" stroke="#000000" points="3183.6313,-263 3026.3687,-263 3026.3687,-227 3183.6313,-227 3183.6313,-263"/>
<text text-anchor="middle" x="3105" y="-240.8" font-family="Times,serif" font-size="14.00" fill="#000000">MaintenanceComponent </text>
</g>
<!-- PagesModule&#45;&gt;MaintenanceComponent  -->
<g id="edge30" class="edge">
<title>PagesModule&#45;&gt;MaintenanceComponent </title>
<path fill="none" stroke="#000000" stroke-dasharray="5,2" d="M3260.5883,-194C3217.6145,-194 3160.3161,-194 3160.3161,-194 3160.3161,-194 3160.3161,-216.8757 3160.3161,-216.8757"/>
<polygon fill="#000000" stroke="#000000" points="3156.8162,-216.8757 3160.3161,-226.8757 3163.8162,-216.8757 3156.8162,-216.8757"/>
</g>
<!-- RecoverComponent  -->
<g id="node32" class="node">
<title>RecoverComponent </title>
<polygon fill="#fb8072" stroke="#000000" points="3008.9743,-263 2877.0257,-263 2877.0257,-227 3008.9743,-227 3008.9743,-263"/>
<text text-anchor="middle" x="2943" y="-240.8" font-family="Times,serif" font-size="14.00" fill="#000000">RecoverComponent </text>
</g>
<!-- PagesModule&#45;&gt;RecoverComponent  -->
<g id="edge31" class="edge">
<title>PagesModule&#45;&gt;RecoverComponent </title>
<path fill="none" stroke="#000000" stroke-dasharray="5,2" d="M3260.716,-189C3174.9701,-189 3000.0623,-189 3000.0623,-189 3000.0623,-189 3000.0623,-216.973 3000.0623,-216.973"/>
<polygon fill="#000000" stroke="#000000" points="2996.5623,-216.973 3000.0623,-226.973 3003.5623,-216.973 2996.5623,-216.973"/>
</g>
<!-- RegisterComponent  -->
<g id="node33" class="node">
<title>RegisterComponent </title>
<polygon fill="#fb8072" stroke="#000000" points="3906.9855,-263 3775.0145,-263 3775.0145,-227 3906.9855,-227 3906.9855,-263"/>
<text text-anchor="middle" x="3841" y="-240.8" font-family="Times,serif" font-size="14.00" fill="#000000">RegisterComponent </text>
</g>
<!-- PagesModule&#45;&gt;RegisterComponent  -->
<g id="edge32" class="edge">
<title>PagesModule&#45;&gt;RegisterComponent </title>
<path fill="none" stroke="#000000" stroke-dasharray="5,2" d="M3353.3273,-183C3481.0892,-183 3829.0367,-183 3829.0367,-183 3829.0367,-183 3829.0367,-216.7333 3829.0367,-216.7333"/>
<polygon fill="#000000" stroke="#000000" points="3825.5367,-216.7333 3829.0367,-226.7333 3832.5367,-216.7333 3825.5367,-216.7333"/>
</g>
<!-- OrderReportComponent -->
<g id="node34" class="node">
<title>OrderReportComponent</title>
<polygon fill="#ffffb3" stroke="#000000" points="4427.0772,-122 4274.9228,-122 4274.9228,-86 4427.0772,-86 4427.0772,-122"/>
<text text-anchor="middle" x="4351" y="-99.8" font-family="Times,serif" font-size="14.00" fill="#000000">OrderReportComponent</text>
</g>
<!-- ReportsModule -->
<g id="node35" class="node">
<title>ReportsModule</title>
<polygon fill="#8dd3c7" stroke="#000000" points="4315.5968,-198 4312.5968,-202 4291.5968,-202 4288.5968,-198 4212.4032,-198 4212.4032,-162 4315.5968,-162 4315.5968,-198"/>
<text text-anchor="middle" x="4264" y="-175.8" font-family="Times,serif" font-size="14.00" fill="#000000">ReportsModule</text>
</g>
<!-- OrderReportComponent&#45;&gt;ReportsModule -->
<g id="edge33" class="edge">
<title>OrderReportComponent&#45;&gt;ReportsModule</title>
<path fill="none" stroke="#000000" d="M4295.2549,-122.0109C4295.2549,-122.0109 4295.2549,-151.855 4295.2549,-151.855"/>
<polygon fill="#000000" stroke="#000000" points="4291.755,-151.8549 4295.2549,-161.855 4298.755,-151.855 4291.755,-151.8549"/>
</g>
<!-- ReportsRoutingModule -->
<g id="node36" class="node">
<title>ReportsRoutingModule</title>
<polygon fill="#8dd3c7" stroke="#000000" points="4251.2148,-122 4248.2148,-126 4227.2148,-126 4224.2148,-122 4102.7852,-122 4102.7852,-86 4251.2148,-86 4251.2148,-122"/>
<text text-anchor="middle" x="4177" y="-99.8" font-family="Times,serif" font-size="14.00" fill="#000000">ReportsRoutingModule</text>
</g>
<!-- ReportsRoutingModule&#45;&gt;ReportsModule -->
<g id="edge34" class="edge">
<title>ReportsRoutingModule&#45;&gt;ReportsModule</title>
<path fill="none" stroke="#000000" d="M4231.7795,-122.0109C4231.7795,-122.0109 4231.7795,-151.855 4231.7795,-151.855"/>
<polygon fill="#000000" stroke="#000000" points="4228.2795,-151.8549 4231.7795,-161.855 4235.2795,-151.855 4228.2795,-151.8549"/>
</g>
<!-- SampleComponent -->
<g id="node37" class="node">
<title>SampleComponent</title>
<polygon fill="#ffffb3" stroke="#000000" points="4915.8258,-122 4792.1742,-122 4792.1742,-86 4915.8258,-86 4915.8258,-122"/>
<text text-anchor="middle" x="4854" y="-99.8" font-family="Times,serif" font-size="14.00" fill="#000000">SampleComponent</text>
</g>
<!-- SampleModule -->
<g id="node39" class="node">
<title>SampleModule</title>
<polygon fill="#8dd3c7" stroke="#000000" points="4756.5438,-198 4753.5438,-202 4732.5438,-202 4729.5438,-198 4655.4562,-198 4655.4562,-162 4756.5438,-162 4756.5438,-198"/>
<text text-anchor="middle" x="4706" y="-175.8" font-family="Times,serif" font-size="14.00" fill="#000000">SampleModule</text>
</g>
<!-- SampleComponent&#45;&gt;SampleModule -->
<g id="edge37" class="edge">
<title>SampleComponent&#45;&gt;SampleModule</title>
<path fill="none" stroke="#000000" d="M4854,-122.0109C4854,-144.4852 4854,-180 4854,-180 4854,-180 4766.9332,-180 4766.9332,-180"/>
<polygon fill="#000000" stroke="#000000" points="4766.9332,-176.5001 4756.9332,-180 4766.9332,-183.5001 4766.9332,-176.5001"/>
</g>
<!-- Samplev1Component -->
<g id="node38" class="node">
<title>Samplev1Component</title>
<polygon fill="#ffffb3" stroke="#000000" points="4774.8258,-122 4637.1742,-122 4637.1742,-86 4774.8258,-86 4774.8258,-122"/>
<text text-anchor="middle" x="4706" y="-99.8" font-family="Times,serif" font-size="14.00" fill="#000000">Samplev1Component</text>
</g>
<!-- Samplev1Component&#45;&gt;SampleModule -->
<g id="edge38" class="edge">
<title>Samplev1Component&#45;&gt;SampleModule</title>
<path fill="none" stroke="#000000" d="M4706,-122.0109C4706,-122.0109 4706,-151.855 4706,-151.855"/>
<polygon fill="#000000" stroke="#000000" points="4702.5001,-151.8549 4706,-161.855 4709.5001,-151.855 4702.5001,-151.8549"/>
</g>
<!-- SampleRoutingModule -->
<g id="node40" class="node">
<title>SampleRoutingModule</title>
<polygon fill="#8dd3c7" stroke="#000000" points="4613.161,-122 4610.161,-126 4589.161,-126 4586.161,-122 4466.839,-122 4466.839,-86 4613.161,-86 4613.161,-122"/>
<text text-anchor="middle" x="4540" y="-99.8" font-family="Times,serif" font-size="14.00" fill="#000000">SampleRoutingModule</text>
</g>
<!-- SampleRoutingModule&#45;&gt;SampleModule -->
<g id="edge39" class="edge">
<title>SampleRoutingModule&#45;&gt;SampleModule</title>
<path fill="none" stroke="#000000" d="M4540,-122.0109C4540,-144.4852 4540,-180 4540,-180 4540,-180 4645.2925,-180 4645.2925,-180"/>
<polygon fill="#000000" stroke="#000000" points="4645.2926,-183.5001 4655.2925,-180 4645.2925,-176.5001 4645.2926,-183.5001"/>
</g>
<!-- CheckallDirective -->
<g id="node41" class="node">
<title>CheckallDirective</title>
<polygon fill="#ffffb3" stroke="#000000" points="2062.8445,-122 1945.1555,-122 1945.1555,-86 2062.8445,-86 2062.8445,-122"/>
<text text-anchor="middle" x="2004" y="-99.8" font-family="Times,serif" font-size="14.00" fill="#000000">CheckallDirective</text>
</g>
<!-- CheckallDirective&#45;&gt;SharedModule -->
<g id="edge40" class="edge">
<title>CheckallDirective&#45;&gt;SharedModule</title>
<path fill="none" stroke="#000000" d="M1982.6615,-122.4218C1982.6615,-131.2791 1982.6615,-140 1982.6615,-140 1982.6615,-140 1575.7008,-140 1575.7008,-140 1575.7008,-140 1575.7008,-151.8726 1575.7008,-151.8726"/>
<polygon fill="#000000" stroke="#000000" points="1572.2009,-151.8725 1575.7008,-161.8726 1579.2009,-151.8726 1572.2009,-151.8725"/>
</g>
<!-- EasypiechartDirective -->
<g id="node42" class="node">
<title>EasypiechartDirective</title>
<polygon fill="#ffffb3" stroke="#000000" points="1927.3807,-122 1786.6193,-122 1786.6193,-86 1927.3807,-86 1927.3807,-122"/>
<text text-anchor="middle" x="1857" y="-99.8" font-family="Times,serif" font-size="14.00" fill="#000000">EasypiechartDirective</text>
</g>
<!-- EasypiechartDirective&#45;&gt;SharedModule -->
<g id="edge41" class="edge">
<title>EasypiechartDirective&#45;&gt;SharedModule</title>
<path fill="none" stroke="#000000" d="M1832.3038,-122.1432C1832.3038,-128.4611 1832.3038,-134 1832.3038,-134 1832.3038,-134 1570.1974,-134 1570.1974,-134 1570.1974,-134 1570.1974,-151.8196 1570.1974,-151.8196"/>
<polygon fill="#000000" stroke="#000000" points="1566.6975,-151.8195 1570.1974,-161.8196 1573.6975,-151.8196 1566.6975,-151.8195"/>
</g>
<!-- FlotDirective -->
<g id="node43" class="node">
<title>FlotDirective</title>
<polygon fill="#ffffb3" stroke="#000000" points="1768.1473,-122 1677.8527,-122 1677.8527,-86 1768.1473,-86 1768.1473,-122"/>
<text text-anchor="middle" x="1723" y="-99.8" font-family="Times,serif" font-size="14.00" fill="#000000">FlotDirective</text>
</g>
<!-- FlotDirective&#45;&gt;SharedModule -->
<g id="edge42" class="edge">
<title>FlotDirective&#45;&gt;SharedModule</title>
<path fill="none" stroke="#000000" d="M1694.0288,-122.1903C1694.0288,-125.5376 1694.0288,-128 1694.0288,-128 1694.0288,-128 1564.694,-128 1564.694,-128 1564.694,-128 1564.694,-151.8129 1564.694,-151.8129"/>
<polygon fill="#000000" stroke="#000000" points="1561.1941,-151.8129 1564.694,-161.8129 1568.1941,-151.813 1561.1941,-151.8129"/>
</g>
<!-- JqcloudDirective -->
<g id="node44" class="node">
<title>JqcloudDirective</title>
<polygon fill="#ffffb3" stroke="#000000" points="1659.6332,-122 1548.3668,-122 1548.3668,-86 1659.6332,-86 1659.6332,-122"/>
<text text-anchor="middle" x="1604" y="-99.8" font-family="Times,serif" font-size="14.00" fill="#000000">JqcloudDirective</text>
</g>
<!-- JqcloudDirective&#45;&gt;SharedModule -->
<g id="edge43" class="edge">
<title>JqcloudDirective&#45;&gt;SharedModule</title>
<path fill="none" stroke="#000000" d="M1553.6871,-122.0109C1553.6871,-122.0109 1553.6871,-151.855 1553.6871,-151.855"/>
<polygon fill="#000000" stroke="#000000" points="1550.1872,-151.8549 1553.6871,-161.855 1557.1872,-151.855 1550.1872,-151.8549"/>
</g>
<!-- NowDirective -->
<g id="node45" class="node">
<title>NowDirective</title>
<polygon fill="#ffffb3" stroke="#000000" points="1530.7965,-122 1435.2035,-122 1435.2035,-86 1530.7965,-86 1530.7965,-122"/>
<text text-anchor="middle" x="1483" y="-99.8" font-family="Times,serif" font-size="14.00" fill="#000000">NowDirective</text>
</g>
<!-- NowDirective&#45;&gt;SharedModule -->
<g id="edge44" class="edge">
<title>NowDirective&#45;&gt;SharedModule</title>
<path fill="none" stroke="#000000" d="M1512.2184,-122.0109C1512.2184,-122.0109 1512.2184,-151.855 1512.2184,-151.855"/>
<polygon fill="#000000" stroke="#000000" points="1508.7185,-151.8549 1512.2184,-161.855 1515.7185,-151.855 1508.7185,-151.8549"/>
</g>
<!-- ScrollableDirective -->
<g id="node46" class="node">
<title>ScrollableDirective</title>
<polygon fill="#ffffb3" stroke="#000000" points="1417.3417,-122 1292.6583,-122 1292.6583,-86 1417.3417,-86 1417.3417,-122"/>
<text text-anchor="middle" x="1355" y="-99.8" font-family="Times,serif" font-size="14.00" fill="#000000">ScrollableDirective</text>
</g>
<!-- ScrollableDirective&#45;&gt;SharedModule -->
<g id="edge45" class="edge">
<title>ScrollableDirective&#45;&gt;SharedModule</title>
<path fill="none" stroke="#000000" d="M1390.8506,-122.302C1390.8506,-140.2699 1390.8506,-165 1390.8506,-165 1390.8506,-165 1483.6015,-165 1483.6015,-165"/>
<polygon fill="#000000" stroke="#000000" points="1483.6015,-168.5001 1493.6015,-165 1483.6014,-161.5001 1483.6015,-168.5001"/>
</g>
<!-- SparklineDirective -->
<g id="node47" class="node">
<title>SparklineDirective</title>
<polygon fill="#ffffb3" stroke="#000000" points="2350.7367,-122 2229.2633,-122 2229.2633,-86 2350.7367,-86 2350.7367,-122"/>
<text text-anchor="middle" x="2290" y="-99.8" font-family="Times,serif" font-size="14.00" fill="#000000">SparklineDirective</text>
</g>
<!-- SparklineDirective&#45;&gt;SharedModule -->
<g id="edge46" class="edge">
<title>SparklineDirective&#45;&gt;SharedModule</title>
<path fill="none" stroke="#000000" d="M2270.5898,-122.037C2270.5898,-135.2913 2270.5898,-151 2270.5898,-151 2270.5898,-151 1586.7077,-151 1586.7077,-151 1586.7077,-151 1586.7077,-152.0799 1586.7077,-152.0799"/>
<polygon fill="#000000" stroke="#000000" points="1583.2078,-151.7985 1586.7077,-161.7985 1590.2078,-151.7986 1583.2078,-151.7985"/>
</g>
<!-- VectormapDirective -->
<g id="node48" class="node">
<title>VectormapDirective</title>
<polygon fill="#ffffb3" stroke="#000000" points="2211.2753,-122 2080.7247,-122 2080.7247,-86 2211.2753,-86 2211.2753,-122"/>
<text text-anchor="middle" x="2146" y="-99.8" font-family="Times,serif" font-size="14.00" fill="#000000">VectormapDirective</text>
</g>
<!-- VectormapDirective&#45;&gt;SharedModule -->
<g id="edge47" class="edge">
<title>VectormapDirective&#45;&gt;SharedModule</title>
<path fill="none" stroke="#000000" d="M2122.2421,-122.1025C2122.2421,-133.0859 2122.2421,-145 2122.2421,-145 2122.2421,-145 1581.2043,-145 1581.2043,-145 1581.2043,-145 1581.2043,-151.68 1581.2043,-151.68"/>
<polygon fill="#000000" stroke="#000000" points="1577.7043,-151.6799 1581.2043,-161.68 1584.7043,-151.68 1577.7043,-151.6799"/>
</g>
<!-- ColorsService -->
<g id="node57" class="node">
<title>ColorsService</title>
<ellipse fill="#fdb462" stroke="#000000" cx="90" cy="-104" rx="65.9871" ry="18"/>
<text text-anchor="middle" x="90" y="-99.8" font-family="Times,serif" font-size="14.00" fill="#000000">ColorsService</text>
</g>
<!-- ColorsService&#45;&gt;SharedModule -->
<g id="edge56" class="edge">
<title>ColorsService&#45;&gt;SharedModule</title>
<path fill="none" stroke="#000000" d="M90,-122.2337C90,-148.0094 90,-192 90,-192 90,-192 1483.4048,-192 1483.4048,-192"/>
<polygon fill="#000000" stroke="#000000" points="1483.4048,-195.5001 1493.4048,-192 1483.4048,-188.5001 1483.4048,-195.5001"/>
</g>
</g>
</svg>
